<svg width="33" height="32" viewBox="0 0 33 32" fill="none" xmlns="http://www.w3.org/2000/svg">
<defs>
<radialGradient id="paint0_radial_1_1096" cx="0" cy="0" r="1" gradientUnits="userSpaceOnUse" gradientTransform="translate(9.00004 34.4647) rotate(-90) scale(31.7144 29.4969)">
<stop stop-color="#FFDD55"/>
<stop offset="0.1" stop-color="#FFDD55"/>
<stop offset="0.5" stop-color="#FF543E"/>
<stop offset="1" stop-color="#C837AB"/>
</radialGradient>
<radialGradient id="paint1_radial_1_1096" cx="0" cy="0" r="1" gradientUnits="userSpaceOnUse" gradientTransform="translate(-4.86017 2.30523) rotate(78.6806) scale(14.1765 58.4359)">
<stop stop-color="#3771C8"/>
<stop offset="0.128" stop-color="#3771C8"/>
<stop offset="1" stop-color="#6600FF" stop-opacity="0"/>
</radialGradient>
</defs>
<rect x="0.5" width="32" height="32" rx="8" fill="url(#paint0_radial_1_1096)"/>
<rect x="0.5" width="32" height="32" rx="8" fill="url(#paint1_radial_1_1096)"/>
<path d="M16.5917 4.18506C13.3835 4.18506 12.9808 4.19909 11.7208 4.25645C10.4632 4.31405 9.60474 4.51321 8.85362 4.80542C8.07666 5.10723 7.41758 5.51096 6.76097 6.168C6.10386 6.82479 5.70024 7.48405 5.39753 8.26097C5.10466 9.01254 4.90532 9.87145 4.84871 11.1289C4.7926 12.3893 4.77783 12.7923 4.77783 16.0014C4.77783 19.2106 4.79211 19.6121 4.8492 20.8725C4.90704 22.1305 5.10614 22.9891 5.39802 23.7404C5.7 24.5176 6.10361 25.1769 6.76047 25.8337C7.41684 26.4909 8.07592 26.8957 8.85239 27.1975C9.604 27.4897 10.4627 27.6888 11.72 27.7464C12.9801 27.8038 13.3825 27.8178 16.5905 27.8178C19.799 27.8178 20.2004 27.8038 21.4605 27.7464C22.7181 27.6888 23.5775 27.4897 24.3291 27.1975C25.1058 26.8957 25.7639 26.4909 26.4203 25.8337C27.0774 25.1769 27.481 24.5176 27.7837 23.7407C28.0741 22.9891 28.2735 22.1302 28.3325 20.8727C28.3891 19.6123 28.4039 19.2106 28.4039 16.0014C28.4039 12.7923 28.3891 12.3896 28.3325 11.1292C28.2735 9.8712 28.0741 9.01254 27.7837 8.26122C27.481 7.48405 27.0774 6.82479 26.4203 6.168C25.7632 5.51071 25.1061 5.10698 24.3284 4.80542C23.5753 4.51321 22.7164 4.31405 21.4588 4.25645C20.1987 4.19909 19.7975 4.18506 16.5883 4.18506H16.5917ZM15.532 6.31447C15.8465 6.31398 16.1975 6.31447 16.5917 6.31447C19.7458 6.31447 20.1197 6.32579 21.3652 6.38241C22.517 6.4351 23.1421 6.6276 23.5585 6.78934C24.1098 7.00351 24.5029 7.25953 24.9161 7.67311C25.3295 8.08668 25.5855 8.48056 25.8001 9.03199C25.9618 9.44803 26.1545 10.0733 26.2069 11.2254C26.2635 12.4711 26.2758 12.8452 26.2758 15.9987C26.2758 19.1522 26.2635 19.5264 26.2069 20.7721C26.1542 21.9242 25.9618 22.5494 25.8001 22.9655C25.586 23.5169 25.3295 23.9096 24.9161 24.3229C24.5026 24.7365 24.1101 24.9925 23.5585 25.2067C23.1426 25.3691 22.517 25.5611 21.3652 25.6138C20.1199 25.6704 19.7458 25.6828 16.5917 25.6828C13.4374 25.6828 13.0635 25.6704 11.8182 25.6138C10.6664 25.5606 10.0413 25.3681 9.62467 25.2064C9.07339 24.9922 8.67962 24.7362 8.26616 24.3226C7.8527 23.9091 7.59675 23.5162 7.38214 22.9645C7.22045 22.5485 7.02775 21.9232 6.97533 20.7711C6.91872 19.5254 6.9074 19.1512 6.9074 15.9958C6.9074 12.8403 6.91872 12.4681 6.97533 11.2225C7.02799 10.0704 7.22045 9.44507 7.38214 9.02854C7.59626 8.47711 7.8527 8.08323 8.26616 7.66966C8.67962 7.25609 9.07339 7.00007 9.62467 6.7854C10.0411 6.62293 10.6664 6.43091 11.8182 6.37798C12.908 6.32875 13.3303 6.31398 15.532 6.31152V6.31447ZM22.8975 8.27648C22.6171 8.27648 22.343 8.35966 22.1099 8.51549C21.8768 8.67132 21.6951 8.8928 21.5878 9.15193C21.4805 9.41106 21.4525 9.69619 21.5072 9.97126C21.5619 10.2463 21.697 10.499 21.8953 10.6973C22.0936 10.8956 22.3462 11.0306 22.6212 11.0852C22.8963 11.1399 23.1813 11.1117 23.4403 11.0043C23.6993 10.8969 23.9207 10.7151 24.0764 10.4819C24.2321 10.2486 24.3152 9.97442 24.3151 9.69395C24.3151 8.91112 23.6801 8.27599 22.8975 8.27599V8.27648ZM16.5917 9.93324C13.2415 9.93324 10.5252 12.6503 10.5252 16.0014C10.5252 19.3526 13.2415 22.0684 16.5917 22.0684C19.942 22.0684 22.6575 19.3526 22.6575 16.0014C22.6575 12.6503 19.9418 9.93324 16.5915 9.93324H16.5917ZM16.5917 12.0626C18.7663 12.0626 20.5295 13.826 20.5295 16.0014C20.5295 18.1766 18.7663 19.9402 16.5917 19.9402C14.4169 19.9402 12.654 18.1766 12.654 16.0014C12.654 13.826 14.4169 12.0626 16.5917 12.0626Z" fill="white"/>

</svg>
