<svg width="7" height="8" viewBox="0 0 7 8" fill="none" xmlns="http://www.w3.org/2000/svg">
<path id="Vector" d="M4.15212 7.59068C4.27545 7.64101 4.40592 7.64681 4.52554 7.6073C4.64517 7.56779 4.74806 7.4849 4.82002 7.37006C4.89223 7.25152 4.93033 7.10761 4.92883 6.95621L4.89591 5.96436C4.88895 5.71523 4.93207 5.47263 5.02186 5.2558C5.11164 5.03897 5.24562 4.85387 5.41317 4.71518L6.09337 4.16412C6.19231 4.07739 6.26258 3.95429 6.29427 3.81216C6.32595 3.67003 6.31746 3.51604 6.26999 3.37189C6.22252 3.22773 6.13847 3.10068 6.02967 3.00864C5.92087 2.91659 5.79281 2.86419 5.66354 2.85882L4.80836 2.81134C4.59368 2.79814 4.38031 2.72701 4.18517 2.6036C3.99003 2.48019 3.81849 2.30791 3.68419 2.10042L3.14903 1.26186C3.06675 1.13945 2.95578 1.04669 2.83154 0.996507C2.7073 0.946321 2.57599 0.941197 2.45586 0.981849C2.33573 1.0225 2.23276 1.10691 2.16128 1.22332C2.0898 1.33974 2.05336 1.48238 2.05703 1.6314L2.08993 2.64297C2.09497 2.88596 2.05234 3.12234 1.96526 3.33425C1.87818 3.54616 1.74893 3.72806 1.58727 3.8662L0.907014 4.41509C0.808454 4.50058 0.737979 4.62204 0.705373 4.7626C0.672766 4.90317 0.679646 5.05586 0.725057 5.19949C0.770469 5.34312 0.852158 5.47055 0.958784 5.56409C1.06541 5.65763 1.19168 5.71265 1.32007 5.72149L2.17408 5.76716C2.38973 5.78066 2.604 5.85264 2.79972 5.97733C2.99543 6.10203 3.16713 6.27597 3.30106 6.4852L3.83683 7.32575C3.91857 7.44798 4.02901 7.54039 4.15212 7.59068Z" fill="#75BE75"/>
</svg>
