<svg width="7" height="8" viewBox="0 0 7 8" fill="none" xmlns="http://www.w3.org/2000/svg">
<path id="Vector" d="M4.05886 7.53868C4.18218 7.589 4.31265 7.59481 4.43228 7.5553C4.55191 7.51578 4.65479 7.43289 4.72675 7.31806C4.79897 7.19951 4.83707 7.05561 4.83557 6.90421L4.80264 5.91236C4.79569 5.66322 4.83881 5.42063 4.92859 5.2038C5.01838 4.98697 5.15236 4.80187 5.31991 4.66318L6.00011 4.11212C6.09905 4.02539 6.16932 3.90229 6.20101 3.76016C6.23269 3.61803 6.2242 3.46404 6.17673 3.31989C6.12926 3.17573 6.04521 3.04868 5.93641 2.95664C5.82761 2.86459 5.69955 2.81219 5.57028 2.80682L4.7151 2.75934C4.50042 2.74613 4.28704 2.675 4.0919 2.5516C3.89676 2.42819 3.72523 2.2559 3.59093 2.04842L3.05577 1.20986C2.97349 1.08744 2.86252 0.994691 2.73828 0.944505C2.61404 0.894319 2.48273 0.889195 2.3626 0.929847C2.24247 0.970499 2.1395 1.0549 2.06802 1.17132C1.99654 1.28774 1.9601 1.43038 1.96377 1.57939L1.99667 2.59097C2.00171 2.83396 1.95908 3.07034 1.872 3.28225C1.78492 3.49416 1.65567 3.67606 1.49401 3.8142L0.813752 4.36308C0.715193 4.44858 0.644718 4.57004 0.612111 4.7106C0.579505 4.85117 0.586385 5.00386 0.631796 5.14749C0.677207 5.29111 0.758896 5.41854 0.865522 5.51209C0.972148 5.60563 1.09842 5.66064 1.22681 5.66949L2.08082 5.71516C2.29647 5.72865 2.51074 5.80064 2.70645 5.92533C2.90217 6.05003 3.07387 6.22397 3.20779 6.4332L3.74357 7.27375C3.82531 7.39598 3.93575 7.48839 4.05886 7.53868Z" fill="#75BE75"/>
</svg>
