<svg width="7" height="8" viewBox="0 0 7 8" fill="none" xmlns="http://www.w3.org/2000/svg">
<path id="Vector" d="M3.98979 7.5929C4.1152 7.64408 4.24787 7.64998 4.36952 7.6098C4.49117 7.56962 4.59579 7.48533 4.66897 7.36856C4.74241 7.24801 4.78115 7.10167 4.77963 6.94771L4.74614 5.9391C4.73907 5.68575 4.78292 5.43906 4.87422 5.21856C4.96552 4.99807 5.10176 4.80985 5.27215 4.66881L5.96384 4.10844C6.06446 4.02024 6.13591 3.89506 6.16813 3.75053C6.20036 3.606 6.19172 3.44941 6.14345 3.30282C6.09518 3.15623 6.0097 3.02703 5.89906 2.93343C5.78843 2.83983 5.65821 2.78654 5.52675 2.78108L4.65712 2.7328C4.43881 2.71937 4.22183 2.64704 4.02339 2.52154C3.82495 2.39605 3.65052 2.22085 3.51395 2.00986L2.96975 1.15713C2.88608 1.03265 2.77323 0.938327 2.64689 0.887293C2.52056 0.836259 2.38702 0.831049 2.26486 0.872387C2.1427 0.913726 2.03799 0.999558 1.96531 1.11794C1.89262 1.23633 1.85556 1.38138 1.85929 1.53291L1.89275 2.56158C1.89788 2.80867 1.85452 3.04905 1.76597 3.26454C1.67742 3.48003 1.54599 3.66501 1.3816 3.80548L0.689842 4.36364C0.589617 4.45058 0.517951 4.57409 0.484794 4.71703C0.451636 4.85997 0.458633 5.01525 0.504811 5.1613C0.55099 5.30735 0.634059 5.43694 0.742487 5.53206C0.850915 5.62719 0.979322 5.68313 1.10988 5.69213L1.97832 5.73857C2.19761 5.75229 2.41551 5.82549 2.61453 5.95229C2.81355 6.0791 2.98816 6.25597 3.12434 6.46874L3.66917 7.32349C3.75229 7.44779 3.8646 7.54176 3.98979 7.5929Z" fill="#0F9D58"/>
</svg>
