<svg width="7" height="9" viewBox="0 0 7 9" fill="none" xmlns="http://www.w3.org/2000/svg">
<path id="Vector" d="M1.72266 8.26806C1.55579 8.28682 1.39177 8.24759 1.2532 8.15577C1.11463 8.06396 1.00835 7.92408 0.949018 7.75544C0.890344 7.58207 0.880842 7.38928 0.92264 7.20125L1.22524 5.97769C1.29961 5.66988 1.30989 5.35238 1.25525 5.05036C1.20062 4.74833 1.08257 4.47009 0.910475 4.23768L0.208658 3.30912C0.108304 3.16587 0.0532592 2.98753 0.0512807 2.79923C0.0493019 2.61093 0.10049 2.42217 0.197629 2.25954C0.294769 2.09691 0.432965 1.96861 0.592744 1.89272C0.752524 1.81683 0.925832 1.79717 1.08825 1.83652L2.16585 2.08196C2.4367 2.14197 2.72121 2.12937 2.99679 2.04517C3.27238 1.96097 3.53145 1.80749 3.75343 1.59691L4.6411 0.743125C4.77586 0.619966 4.93854 0.543972 5.10651 0.525713C5.27447 0.507455 5.43937 0.547842 5.57827 0.641254C5.71716 0.734667 5.82314 0.87646 5.88146 1.04691C5.93978 1.21736 5.94755 1.40798 5.90367 1.59227L5.5959 2.84041C5.52554 3.14124 5.51629 3.45082 5.56886 3.74576C5.62142 4.0407 5.73442 4.31327 5.89932 4.54289L6.60178 5.46876C6.70199 5.61034 6.75773 5.78671 6.76126 5.97339C6.7648 6.16007 6.71596 6.34779 6.62152 6.5105C6.52709 6.6732 6.39174 6.80282 6.23427 6.88134C6.0768 6.95987 5.90503 6.98342 5.74279 6.94871L4.66713 6.70144C4.39499 6.64145 4.10914 6.65478 3.8325 6.74039C3.55587 6.82599 3.29614 6.98147 3.07417 7.19435L2.18521 8.0504C2.05116 8.17352 1.88925 8.24928 1.72266 8.26806Z" fill="#00C752"/>
</svg>
