<svg width="8" height="9" viewBox="0 0 8 9" fill="none" xmlns="http://www.w3.org/2000/svg">
<path id="Vector" d="M2.03882 8.22265C1.87195 8.24141 1.70793 8.20218 1.56936 8.11036C1.4308 8.01855 1.32452 7.87867 1.26518 7.71002C1.20651 7.53666 1.197 7.34387 1.2388 7.15584L1.5414 5.93228C1.61577 5.62447 1.62605 5.30697 1.57141 5.00495C1.51678 4.70292 1.39874 4.42468 1.22664 4.19227L0.52482 3.26371C0.424466 3.12046 0.369421 2.94212 0.367443 2.75382C0.365464 2.56552 0.416652 2.37676 0.513792 2.21413C0.610932 2.0515 0.749127 1.9232 0.908907 1.84731C1.06869 1.77142 1.24199 1.75176 1.40441 1.79111L2.48201 2.03655C2.75286 2.09656 3.03737 2.08396 3.31295 1.99976C3.58854 1.91556 3.84761 1.76208 4.0696 1.5515L4.95727 0.697715C5.09203 0.574556 5.25471 0.498561 5.42267 0.480303C5.59064 0.462045 5.75554 0.502432 5.89443 0.595844C6.03332 0.689257 6.1393 0.83105 6.19762 1.0015C6.25594 1.17195 6.26371 1.36257 6.21984 1.54686L5.91207 2.795C5.8417 3.09583 5.83245 3.40541 5.88502 3.70035C5.93758 3.99529 6.05058 4.26786 6.21548 4.49748L6.91795 5.42335C7.01815 5.56493 7.07389 5.7413 7.07742 5.92798C7.08096 6.11466 7.03212 6.30238 6.93768 6.46509C6.84325 6.62779 6.7079 6.75741 6.55043 6.83593C6.39296 6.91446 6.22119 6.93801 6.05896 6.9033L4.98329 6.65603C4.71115 6.59604 4.4253 6.60937 4.14867 6.69497C3.87203 6.78058 3.61231 6.93606 3.39033 7.14894L2.50137 8.00499C2.36732 8.12811 2.20541 8.20387 2.03882 8.22265Z" fill="#00C752"/>
</svg>
