<svg width="77" height="22" viewBox="0 0 77 22" fill="none" xmlns="http://www.w3.org/2000/svg">
<path id="Vector" d="M1.79991 9.87046C1.79991 7.7389 2.1942 6.38246 2.98279 5.93031V5.41357H0.879883V0.633721H12.183C14.0231 0.633721 15.3374 1.27965 16.1917 2.5715C17.046 3.86335 17.506 5.60735 17.506 7.73891V21.3679H1.79991V9.87046ZM12.643 8.51402C12.643 7.41594 12.5116 6.64083 12.183 6.12409C11.8544 5.60735 11.3944 5.34898 10.6716 5.34898H7.51719C6.92575 5.34898 6.66289 5.80113 6.66289 6.64083V16.5235H12.5773V8.51402H12.643ZM21.5804 12.7125V0.56913H26.5091V12.7125H21.5804ZM39.9809 21.3034H35.0522V12.1958C35.0522 11.7436 35.0522 11.2269 35.1179 10.7102C35.1836 10.1934 35.2493 9.61209 35.3807 9.03076C35.5122 8.44942 35.7093 7.86809 35.9722 7.22216C36.2351 6.57624 36.5636 5.93031 37.0236 5.28439H29.2692V0.439941H42.6752V4.57387C41.6238 5.21979 40.9009 5.86572 40.5066 6.57624C40.1123 7.28676 39.9809 8.12646 39.9809 9.15994V21.3034ZM46.5525 12.7125V0.56913H51.4812V12.7125H46.5525ZM65.0186 21.3034H60.0899V12.1958C60.0899 11.7436 60.0899 11.2269 60.1557 10.7102C60.2214 10.1934 60.2871 9.61209 60.4185 9.03076C60.5499 8.44942 60.7471 7.86809 61.01 7.22216C61.2728 6.57624 61.6014 5.93031 62.0614 5.28439H54.3069V0.439941H67.713V4.57387C66.6615 5.21979 65.9387 5.86572 65.5444 6.57624C65.1501 7.28676 65.0186 8.12646 65.0186 9.15994V21.3034ZM71.5245 12.7125V0.56913H76.4532V12.7125H71.5245Z" fill="white"/>
</svg>
