<svg width="6" height="8" viewBox="0 0 6 8" fill="none" xmlns="http://www.w3.org/2000/svg">
<path id="Vector" d="M3.57497 7.38267C3.6983 7.433 3.82877 7.43881 3.94839 7.39929C4.06802 7.35978 4.17091 7.27689 4.24287 7.16206C4.31508 7.04351 4.35319 6.89961 4.35169 6.74821L4.31876 5.75636C4.3118 5.50722 4.35492 5.26462 4.44471 5.04779C4.53449 4.83096 4.66847 4.64587 4.83602 4.50717L5.51622 3.95612C5.61517 3.86939 5.68543 3.74628 5.71712 3.60416C5.7488 3.46203 5.74031 3.30804 5.69284 3.16388C5.64538 3.01973 5.56132 2.89268 5.45252 2.80063C5.34372 2.70858 5.21566 2.65618 5.08639 2.65081L4.23121 2.60334C4.01654 2.59013 3.80316 2.519 3.60802 2.39559C3.41288 2.27218 3.24135 2.0999 3.10704 1.89241L2.57189 1.05385C2.48961 0.931438 2.37863 0.838685 2.25439 0.788499C2.13016 0.738313 1.99884 0.733189 1.87871 0.773841C1.75858 0.814493 1.65561 0.898898 1.58413 1.01531C1.51265 1.13173 1.47621 1.27437 1.47988 1.42339L1.51278 2.43496C1.51782 2.67795 1.47519 2.91433 1.38811 3.12624C1.30103 3.33815 1.17178 3.52005 1.01012 3.65819L0.329865 4.20708C0.231306 4.29257 0.160831 4.41403 0.128224 4.5546C0.095618 4.69516 0.102498 4.84786 0.147909 4.99148C0.19332 5.13511 0.275009 5.26254 0.381635 5.35608C0.488261 5.44962 0.614534 5.50464 0.742922 5.51349L1.59693 5.55915C1.81258 5.57265 2.02685 5.64463 2.22257 5.76933C2.41828 5.89402 2.58999 6.06796 2.72391 6.27719L3.25968 7.11774C3.34143 7.23998 3.45186 7.33238 3.57497 7.38267Z" fill="#B9D15F"/>
</svg>
