<svg width="5" height="6" viewBox="0 0 5 6" fill="none" xmlns="http://www.w3.org/2000/svg">
<path id="Vector" d="M3.24397 5.02782C3.33647 5.06556 3.43432 5.06992 3.52404 5.04028C3.61376 5.01065 3.69092 4.94848 3.74489 4.86236C3.79906 4.77345 3.82763 4.66552 3.82651 4.55197L3.80181 3.80808C3.79659 3.62123 3.82894 3.43928 3.89627 3.27666C3.96361 3.11404 4.0641 2.97521 4.18976 2.87119L4.69991 2.4579C4.77412 2.39285 4.82682 2.30053 4.85058 2.19393C4.87435 2.08733 4.86798 1.97184 4.83238 1.86373C4.79678 1.75561 4.73373 1.66032 4.65213 1.59129C4.57053 1.52225 4.47449 1.48295 4.37754 1.47892L3.73615 1.44332C3.57515 1.43341 3.41511 1.38006 3.26876 1.28751C3.1224 1.19495 2.99375 1.06574 2.89303 0.910123L2.49166 0.281205C2.42995 0.189393 2.34672 0.119828 2.25354 0.0821885C2.16036 0.044549 2.06187 0.0407064 1.97178 0.0711951C1.88168 0.101684 1.80445 0.164988 1.75084 0.2523C1.69723 0.339613 1.6699 0.446592 1.67265 0.558356L1.69733 1.31704C1.70111 1.49928 1.66914 1.67656 1.60383 1.8355C1.53852 1.99443 1.44158 2.13085 1.32034 2.23446L0.810143 2.64612C0.736224 2.71024 0.683367 2.80134 0.658912 2.90676C0.634458 3.01219 0.639617 3.12671 0.673676 3.23443C0.707734 3.34215 0.769001 3.43772 0.848971 3.50787C0.92894 3.57803 1.02364 3.61929 1.11994 3.62593L1.76044 3.66018C1.92218 3.6703 2.08288 3.72429 2.22967 3.81781C2.37646 3.91133 2.50523 4.04179 2.60567 4.19871L3.0075 4.82912C3.06881 4.9208 3.15164 4.9901 3.24397 5.02782Z" fill="#B9D15F"/>
</svg>
