<svg width="5" height="6" viewBox="0 0 5 6" fill="none" xmlns="http://www.w3.org/2000/svg">
<path id="Vector" d="M1.35364 5.0169C1.2534 5.02816 1.15487 5.0046 1.07163 4.94944C0.988395 4.89429 0.924552 4.81026 0.888908 4.70896C0.853663 4.60482 0.847955 4.48901 0.873063 4.37606L1.05484 3.64106C1.09951 3.45616 1.10568 3.26544 1.07286 3.08401C1.04004 2.90258 0.969135 2.73544 0.865756 2.59583L0.444172 2.03804C0.383889 1.95199 0.350823 1.84486 0.349635 1.73175C0.348446 1.61864 0.379195 1.50525 0.437547 1.40755C0.495899 1.30986 0.578914 1.23279 0.674894 1.1872C0.770874 1.14162 0.874981 1.12981 0.972545 1.15345L1.61986 1.30088C1.78256 1.33693 1.95347 1.32936 2.11901 1.27878C2.28456 1.22821 2.44018 1.13601 2.57353 1.00951L3.10676 0.49664C3.18771 0.422658 3.28543 0.377008 3.38633 0.36604C3.48722 0.355073 3.58628 0.379333 3.66971 0.435446C3.75315 0.491559 3.81681 0.576735 3.85184 0.679124C3.88688 0.781512 3.89154 0.896023 3.86519 1.00672L3.68031 1.75649C3.63804 1.9372 3.63249 2.12316 3.66406 2.30033C3.69564 2.4775 3.76352 2.64124 3.86257 2.77917L4.28454 3.33535C4.34474 3.42039 4.37822 3.52634 4.38034 3.63848C4.38247 3.75062 4.35313 3.86338 4.2964 3.96112C4.23967 4.05886 4.15837 4.13672 4.06378 4.18389C3.96919 4.23106 3.866 4.24521 3.76855 4.22436L3.12239 4.07582C2.95892 4.03978 2.78721 4.04779 2.62103 4.09921C2.45485 4.15064 2.29883 4.24403 2.16549 4.37192L1.63149 4.88614C1.55097 4.9601 1.45371 5.00561 1.35364 5.0169Z" fill="#00C752"/>
</svg>
