<svg width="8" height="9" viewBox="0 0 8 9" fill="none" xmlns="http://www.w3.org/2000/svg">
<path id="Vector" d="M1.96314 8.16027C1.79627 8.17903 1.63224 8.1398 1.49368 8.04798C1.35511 7.95617 1.24883 7.81629 1.1895 7.64765C1.13082 7.47428 1.12132 7.28149 1.16312 7.09347L1.46572 5.8699C1.54009 5.56209 1.55037 5.24459 1.49573 4.94257C1.4411 4.64055 1.32305 4.3623 1.15095 4.12989L0.449137 3.20134C0.348783 3.05808 0.293738 2.87974 0.291759 2.69144C0.28978 2.50314 0.340968 2.31438 0.438108 2.15175C0.535248 1.98912 0.673443 1.86082 0.833223 1.78493C0.993002 1.70904 1.16631 1.68939 1.32873 1.72873L2.40633 1.97417C2.67718 2.03418 2.96169 2.02158 3.23727 1.93738C3.51285 1.85318 3.77193 1.6997 3.99391 1.48912L4.88158 0.635337C5.01634 0.512178 5.17902 0.436183 5.34699 0.417925C5.51495 0.399667 5.67985 0.440054 5.81874 0.533466C5.95764 0.626879 6.06362 0.768672 6.12194 0.93912C6.18026 1.10957 6.18802 1.30019 6.14415 1.48448L5.83638 2.73262C5.76602 3.03345 5.75677 3.34304 5.80933 3.63797C5.8619 3.93291 5.9749 4.20548 6.1398 4.4351L6.84226 5.36098C6.94246 5.50255 6.9982 5.67893 7.00174 5.8656C7.00528 6.05228 6.95644 6.24001 6.862 6.40271C6.76756 6.56541 6.63222 6.69503 6.47475 6.77356C6.31728 6.85208 6.14551 6.87563 5.98327 6.84093L4.90761 6.59365C4.63547 6.53366 4.34962 6.547 4.07298 6.6326C3.79634 6.7182 3.53662 6.87368 3.31465 7.08657L2.42569 7.94261C2.29164 8.06573 2.12973 8.14149 1.96314 8.16027Z" fill="#75BE75"/>
</svg>
