<svg width="5" height="6" viewBox="0 0 5 6" fill="none" xmlns="http://www.w3.org/2000/svg">
<path id="Vector" d="M1.16177 5.79754C1.04842 5.81028 0.937 5.78363 0.842874 5.72126C0.748748 5.65889 0.676553 5.56387 0.636246 5.44932C0.59639 5.33155 0.589935 5.20059 0.618328 5.07287L0.82388 4.24171C0.874401 4.03262 0.881381 3.81695 0.844268 3.61179C0.807154 3.40663 0.726969 3.21762 0.610064 3.05975L0.133329 2.42899C0.0651601 2.33168 0.0277687 2.21053 0.0264245 2.08263C0.0250803 1.95472 0.0598515 1.82649 0.125837 1.71602C0.191823 1.60555 0.285698 1.5184 0.394234 1.46684C0.50277 1.41529 0.620496 1.40194 0.730824 1.42867L1.46282 1.59539C1.64681 1.63616 1.84007 1.6276 2.02727 1.5704C2.21448 1.51321 2.39046 1.40895 2.54125 1.2659L3.14423 0.68594C3.23578 0.60228 3.34628 0.550657 3.46038 0.538255C3.57448 0.525852 3.68649 0.553287 3.78084 0.61674C3.87519 0.680194 3.94718 0.776513 3.98679 0.892296C4.02641 1.00808 4.03169 1.13757 4.00188 1.26275L3.79282 2.1106C3.74502 2.31495 3.73874 2.52525 3.77445 2.72559C3.81015 2.92594 3.88691 3.1111 3.99893 3.26707L4.4761 3.89601C4.54417 3.99218 4.58203 4.11199 4.58443 4.2388C4.58683 4.3656 4.55366 4.49312 4.48951 4.60365C4.42536 4.71417 4.33342 4.80221 4.22645 4.85556C4.11949 4.9089 4.0028 4.92489 3.8926 4.90132L3.16191 4.73335C2.97705 4.6926 2.78288 4.70166 2.59496 4.7598C2.40705 4.81795 2.23062 4.92357 2.07984 5.06818L1.47598 5.64968C1.38492 5.73332 1.27493 5.78477 1.16177 5.79754Z" fill="#75BE75"/>
</svg>
