<svg width="5" height="7" viewBox="0 0 5 7" fill="none" xmlns="http://www.w3.org/2000/svg">
<path id="Vector" d="M3.09819 6.74095C3.2061 6.78499 3.32026 6.79007 3.42494 6.75549C3.52961 6.72092 3.61964 6.64839 3.6826 6.54791C3.74579 6.44418 3.77913 6.31827 3.77782 6.18579L3.74901 5.31793C3.74292 5.09993 3.78065 4.88766 3.85921 4.69793C3.93777 4.50821 4.055 4.34625 4.20161 4.22489L4.79679 3.74272C4.88336 3.66683 4.94485 3.55911 4.97257 3.43475C5.0003 3.31039 4.99287 3.17564 4.95133 3.04951C4.9098 2.92337 4.83625 2.8122 4.74105 2.73166C4.64585 2.65112 4.5338 2.60527 4.42069 2.60057L3.6724 2.55903C3.48456 2.54748 3.29786 2.48524 3.12711 2.37725C2.95636 2.26927 2.80627 2.11852 2.68876 1.93697L2.22049 1.20324C2.1485 1.09612 2.05139 1.01496 1.94269 0.971049C1.83398 0.927137 1.71908 0.922653 1.61396 0.958224C1.50885 0.993794 1.41875 1.06765 1.35621 1.16951C1.29366 1.27138 1.26178 1.39619 1.26499 1.52658L1.29378 2.4117C1.29819 2.62432 1.26089 2.83115 1.18469 3.01658C1.1085 3.202 0.995401 3.36116 0.853952 3.48203L0.258725 3.96231C0.172486 4.03711 0.11082 4.14339 0.0822892 4.26638C0.0537586 4.38938 0.0597785 4.52299 0.0995132 4.64866C0.139248 4.77433 0.210726 4.88583 0.304024 4.96768C0.397322 5.04953 0.50781 5.09767 0.62015 5.10541L1.36741 5.14537C1.5561 5.15718 1.74359 5.22016 1.91484 5.32927C2.08609 5.43838 2.23633 5.59058 2.35351 5.77366L2.82231 6.50914C2.89384 6.61609 2.99047 6.69695 3.09819 6.74095Z" fill="#B9D15F"/>
</svg>
