<svg width="6" height="7" viewBox="0 0 6 7" fill="none" xmlns="http://www.w3.org/2000/svg">
<path id="Vector" d="M1.62351 6.03953C1.50657 6.05268 1.39162 6.02518 1.29451 5.96083C1.1974 5.89649 1.12291 5.79846 1.08133 5.68027C1.04021 5.55877 1.03355 5.42366 1.06284 5.29189L1.27491 4.43439C1.32703 4.21867 1.33424 3.99616 1.29595 3.78449C1.25766 3.57283 1.17493 3.37783 1.05432 3.21495L0.562472 2.5642C0.492141 2.46381 0.453565 2.33882 0.452178 2.20686C0.450791 2.07489 0.486665 1.9426 0.554742 1.82863C0.62282 1.71466 0.71967 1.62474 0.831647 1.57156C0.943624 1.51837 1.06508 1.5046 1.17891 1.53217L1.93411 1.70418C2.12393 1.74623 2.32332 1.73741 2.51645 1.6784C2.70959 1.61939 2.89115 1.51183 3.04672 1.36425L3.66882 0.765896C3.76326 0.679584 3.87727 0.626326 3.99499 0.61353C4.1127 0.600734 4.22826 0.629038 4.3256 0.694503C4.42294 0.759969 4.49721 0.85934 4.53809 0.978794C4.57896 1.09825 4.5844 1.23184 4.55366 1.36099L4.33796 2.23572C4.28865 2.44655 4.28217 2.66351 4.31901 2.87021C4.35585 3.0769 4.43504 3.26793 4.55061 3.42885L5.04291 4.07772C5.11313 4.17694 5.15219 4.30055 5.15467 4.43138C5.15715 4.5622 5.12292 4.69376 5.05674 4.80779C4.99056 4.92182 4.8957 5.01265 4.78534 5.06769C4.67499 5.12272 4.5546 5.13922 4.44091 5.1149L3.68706 4.94161C3.49634 4.89956 3.29601 4.90891 3.10214 4.9689C2.90826 5.02889 2.72624 5.13786 2.57068 5.28705L1.94768 5.88698C1.85374 5.97327 1.74026 6.02636 1.62351 6.03953Z" fill="#3A8844"/>
</svg>
