<svg width="8" height="8" viewBox="0 0 8 8" fill="none" xmlns="http://www.w3.org/2000/svg">
<path id="Vector" d="M2.15894 7.76025C1.99207 7.77901 1.82805 7.73978 1.68948 7.64796C1.55091 7.55614 1.44463 7.41627 1.3853 7.24762C1.32662 7.07426 1.31712 6.88147 1.35892 6.69344L1.66152 5.46988C1.73589 5.16207 1.74617 4.84457 1.69153 4.54254C1.6369 4.24052 1.51885 3.96228 1.34675 3.72987L0.644937 2.80131C0.544583 2.65806 0.489539 2.47971 0.48756 2.29142C0.485581 2.10312 0.536769 1.91436 0.633909 1.75172C0.731049 1.58909 0.869244 1.4608 1.02902 1.38491C1.1888 1.30902 1.36211 1.28936 1.52453 1.32871L2.60213 1.57415C2.87298 1.63415 3.15749 1.62156 3.43307 1.53736C3.70866 1.45316 3.96773 1.29968 4.18971 1.0891L5.07738 0.235313C5.21214 0.112154 5.37482 0.0361591 5.54279 0.0179008C5.71075 -0.000357202 5.87565 0.0400294 6.01455 0.133442C6.15344 0.226854 6.25942 0.368647 6.31774 0.539095C6.37606 0.709543 6.38383 0.90017 6.33995 1.08446L6.03218 2.3326C5.96182 2.63343 5.95257 2.94301 6.00514 3.23795C6.0577 3.53288 6.1707 3.80546 6.3356 4.03508L7.03806 4.96095C7.13827 5.10253 7.194 5.2789 7.19754 5.46558C7.20108 5.65226 7.15224 5.83998 7.0578 6.00269C6.96336 6.16539 6.82802 6.295 6.67055 6.37353C6.51308 6.45206 6.34131 6.47561 6.17907 6.4409L5.10341 6.19363C4.83127 6.13363 4.54542 6.14697 4.26878 6.23257C3.99215 6.31817 3.73242 6.47365 3.51045 6.68654L2.62149 7.54259C2.48744 7.66571 2.32553 7.74146 2.15894 7.76025Z" fill="#75BE75"/>
</svg>
