<svg width="7" height="7" viewBox="0 0 7 7" fill="none" xmlns="http://www.w3.org/2000/svg">
<path id="Vector" d="M2.16072 6.32742C2.02707 6.34244 1.8957 6.31102 1.78472 6.23748C1.67373 6.16394 1.58861 6.05191 1.54109 5.91684C1.49409 5.77798 1.48648 5.62357 1.51996 5.47297L1.76232 4.49297C1.82189 4.24643 1.83012 3.99214 1.78636 3.75024C1.7426 3.50833 1.64806 3.28548 1.51022 3.09933L0.948105 2.35562C0.867727 2.24088 0.823639 2.09804 0.822055 1.94722C0.82047 1.79641 0.861468 1.64522 0.939271 1.51496C1.01707 1.38471 1.12776 1.28195 1.25573 1.22116C1.38371 1.16038 1.52252 1.14464 1.6526 1.17616L2.51569 1.37274C2.73263 1.4208 2.9605 1.41071 3.18123 1.34327C3.40195 1.27583 3.60945 1.1529 3.78725 0.984239L4.49822 0.300411C4.60615 0.201769 4.73645 0.140902 4.87098 0.126278C5.00551 0.111655 5.13758 0.144002 5.24883 0.218819C5.36007 0.293637 5.44495 0.407204 5.49167 0.543722C5.53838 0.680241 5.5446 0.832921 5.50946 0.980523L5.26295 1.98021C5.2066 2.22115 5.19919 2.46911 5.24129 2.70534C5.28339 2.94156 5.3739 3.15988 5.50597 3.34379L6.0686 4.08536C6.14886 4.19875 6.1935 4.34001 6.19633 4.48953C6.19917 4.63905 6.16005 4.7894 6.08441 4.91972C6.00877 5.05004 5.90037 5.15385 5.77425 5.21674C5.64812 5.27964 5.51054 5.2985 5.3806 5.2707L4.51906 5.07265C4.3011 5.0246 4.07215 5.03528 3.85058 5.10384C3.62901 5.17241 3.42099 5.29694 3.2432 5.46745L2.5312 6.15308C2.42384 6.2517 2.29415 6.31237 2.16072 6.32742Z" fill="#00C752"/>
</svg>
