<svg width="25" height="25" viewBox="0 0 25 25" fill="none" xmlns="http://www.w3.org/2000/svg">
<g id="Icon/24/Camera">
<g id="Group 58">
<path id="Union" d="M10.5 4.5V3.5C10.1212 3.5 9.77496 3.714 9.60557 4.05279L10.5 4.5ZM14.5 4.5L15.3944 4.05279C15.225 3.714 14.8788 3.5 14.5 3.5V4.5ZM9 7.5V8.5C9.37877 8.5 9.72504 8.286 9.89443 7.94721L9 7.5ZM3.5 7.5V6.5C2.94772 6.5 2.5 6.94772 2.5 7.5H3.5ZM3.5 19.5H2.5C2.5 20.0523 2.94772 20.5 3.5 20.5V19.5ZM21.5 19.5V20.5C22.0523 20.5 22.5 20.0523 22.5 19.5H21.5ZM21.5 7.5H22.5C22.5 6.94772 22.0523 6.5 21.5 6.5V7.5ZM16 7.5L15.1056 7.94721C15.275 8.286 15.6212 8.5 16 8.5V7.5ZM10.5 5.5H14.5V3.5H10.5V5.5ZM9.89443 7.94721L11.3944 4.94721L9.60557 4.05279L8.10557 7.05279L9.89443 7.94721ZM3.5 8.5H9V6.5H3.5V8.5ZM4.5 19.5V7.5H2.5V19.5H4.5ZM21.5 18.5H3.5V20.5H21.5V18.5ZM20.5 7.5V19.5H22.5V7.5H20.5ZM16 8.5H21.5V6.5H16V8.5ZM13.6056 4.94721L15.1056 7.94721L16.8944 7.05279L15.3944 4.05279L13.6056 4.94721Z" fill="white"/>
<circle id="Ellipse 17" cx="12.5" cy="13.5" r="3" stroke="white" stroke-width="2"/>
</g>
</g>
</svg>
