<svg width="19" height="25" viewBox="0 0 19 25" fill="none" xmlns="http://www.w3.org/2000/svg">
<g id="Icon/myEvents2" clip-path="url(#clip0_1_1125)">
<path id="Union" fill-rule="evenodd" clip-rule="evenodd" d="M0.949951 9.66371C0.949951 5.08189 4.77495 1.3728 9.49995 1.3728C14.2249 1.3728 18.0499 5.08189 18.0499 9.66371C18.0499 14.2455 14.2249 17.9546 9.49995 17.9546C4.77495 17.9546 0.949951 14.2455 0.949951 9.66371ZM1.84995 9.66371C1.84995 13.7437 5.29245 17.0819 9.49995 17.0819C13.7075 17.0819 17.15 13.7437 17.15 9.66371C17.15 5.58371 13.7075 2.24553 9.49995 2.24553C5.29245 2.24553 1.84995 5.58371 1.84995 9.66371ZM14.3825 7.2419C14.7875 7.2419 15.125 7.4819 15.2375 7.85281C15.35 8.22371 15.215 8.61644 14.945 8.85644L12.47 10.6019L13.415 13.4383C13.5275 13.8092 13.3925 14.2019 13.0775 14.4201C12.8975 14.5292 12.7175 14.5946 12.5375 14.5946C12.335 14.5946 12.155 14.5292 11.9975 14.4201L9.52247 12.6746L7.04747 14.4201C6.73247 14.6383 6.30497 14.6383 5.98997 14.4201C5.65247 14.1801 5.53997 13.8092 5.65247 13.4383L6.59747 10.6019L4.12247 8.85644C3.78497 8.61644 3.67247 8.24553 3.78497 7.87462C3.89747 7.50371 4.23497 7.26371 4.63997 7.26371H7.69997L8.64497 4.42735C8.75747 4.05644 9.09497 3.81644 9.49997 3.81644C9.90497 3.81644 10.2425 4.05644 10.355 4.42735L11.3 7.26371L14.3825 7.2419ZM3.15491 22.231L5.13491 21.8601L6.25991 23.4964L8.23991 18.9146C7.09241 18.7619 5.98991 18.4128 5.02241 17.911L3.15491 22.231ZM11.7275 22.471L10.445 18.9583C11.615 18.8273 12.7175 18.5219 13.7075 18.0637L14.9 21.3801L12.9425 20.9001L11.7275 22.471Z" fill="#336CA0"/>
</g>
<defs>
<clipPath id="clip0_1_1125">
<rect width="18" height="24" fill="white" transform="translate(0.5 0.5)"/>
</clipPath>
</defs>
</svg>
