<svg width="29" height="29" viewBox="0 0 29 29" fill="none" xmlns="http://www.w3.org/2000/svg">
<g id="Group">
<path id="Vector" d="M13.4559 0.951965H5.99069C0.917236 0.951965 0.917236 6.01228 0.917236 6.01228V13.4582H4.07003V8.57858L4.93976 9.44606C6.06317 10.5666 7.87512 10.5666 8.99853 9.44606L9.54211 8.90388C10.6655 7.78338 10.6655 5.97613 9.54211 4.85563L8.78109 4.09659H13.4559V0.951965Z" fill="#F9B350"/>
<path id="Vector_2" d="M28.8215 13.4582V6.01228C28.8215 0.951965 23.748 0.951965 23.748 0.951965H16.2466V4.09659H21.1388L20.2691 4.96407C19.1457 6.08457 19.1457 7.89182 20.2691 9.01232L20.8127 9.55449C21.9361 10.675 23.748 10.675 24.8715 9.55449L25.6325 8.79545V13.4582H28.8215Z" fill="#C25C9E"/>
<path id="Vector_3" d="M0.917236 16.3499V23.7958C0.917236 28.8561 5.99069 28.8561 5.99069 28.8561H13.4559V25.7115H8.56366L9.43339 24.844C10.5568 23.7235 10.5568 21.9163 9.43339 20.7958L8.88981 20.2536C7.7664 19.1331 5.95445 19.1331 4.83105 20.2536L4.07003 21.0126V16.3499H0.917236Z" fill="#B9D15F"/>
<path id="Vector_4" d="M16.2466 28.8561H23.7118C28.7853 28.8561 28.7853 23.7958 28.7853 23.7958V16.3499H25.6325V21.2295L24.7627 20.362C23.6393 19.2415 21.8274 19.2415 20.704 20.362L20.1604 20.9042C19.037 22.0247 19.037 23.8319 20.1604 24.9524L20.9214 25.7115H16.2466V28.8561Z" fill="#2798D5"/>
</g>
</svg>
