<svg width="241" height="41" viewBox="0 0 241 41" fill="none" xmlns="http://www.w3.org/2000/svg">
<g clip-path="url(#clip0_445_92)">
<rect width="240" height="40" transform="translate(0.5 0.5)" fill=""/>
<path opacity="0.5" d="M84.8323 38.7345C85.0139 38.7983 85.2061 38.8056 85.3823 38.7556C85.5585 38.7055 85.71 38.6004 85.816 38.4549C85.9223 38.3046 85.9785 38.1222 85.9763 37.9304L85.9278 36.6732C85.9175 36.3575 85.981 36.05 86.1133 35.7752C86.2455 35.5004 86.4428 35.2658 86.6896 35.09L87.6914 34.3916C87.8371 34.2816 87.9406 34.1256 87.9873 33.9455C88.034 33.7653 88.0215 33.5702 87.9515 33.3875C87.8816 33.2048 87.7578 33.0437 87.5976 32.9271C87.4373 32.8104 87.2487 32.744 87.0583 32.7372L85.7988 32.677C85.4826 32.6603 85.1684 32.5701 84.881 32.4137C84.5936 32.2573 84.3409 32.0389 84.1431 31.776L83.3549 30.7131C83.2338 30.558 83.0703 30.4404 82.8873 30.3768C82.7043 30.3132 82.5109 30.3067 82.334 30.3582C82.1571 30.4098 82.0054 30.5167 81.9002 30.6643C81.7949 30.8118 81.7412 30.9926 81.7466 31.1815L81.7951 32.4636C81.8025 32.7716 81.7397 33.0712 81.6115 33.3398C81.4832 33.6083 81.2928 33.8389 81.0547 34.014L80.0528 34.7096C79.9077 34.818 79.8039 34.9719 79.7559 35.1501C79.7078 35.3283 79.718 35.5218 79.7849 35.7038C79.8517 35.8859 79.972 36.0474 80.1291 36.1659C80.2861 36.2845 80.4721 36.3542 80.6612 36.3654L81.919 36.4233C82.2366 36.4404 82.5522 36.5316 82.8405 36.6897C83.1287 36.8477 83.3816 37.0682 83.5788 37.3334L84.3679 38.3987C84.4883 38.5536 84.651 38.6708 84.8323 38.7345Z" fill="#B9D15F"/>
<path opacity="0.5" d="M181.055 31.0345C181.237 31.0983 181.429 31.1057 181.605 31.0556C181.782 31.0055 181.933 30.9005 182.039 30.7549C182.145 30.6047 182.202 30.4223 182.199 30.2304L182.151 28.9733C182.141 28.6575 182.204 28.3501 182.336 28.0752C182.469 27.8004 182.666 27.5658 182.913 27.39L183.915 26.6916C184.06 26.5817 184.164 26.4257 184.21 26.2455C184.257 26.0654 184.245 25.8702 184.175 25.6875C184.105 25.5048 183.981 25.3438 183.821 25.2271C183.66 25.1104 183.472 25.044 183.281 25.0372L182.022 24.9771C181.706 24.9603 181.392 24.8702 181.104 24.7138C180.817 24.5573 180.564 24.339 180.366 24.076L179.578 23.0132C179.457 22.858 179.293 22.7405 179.11 22.6769C178.927 22.6133 178.734 22.6068 178.557 22.6583C178.38 22.7098 178.229 22.8168 178.123 22.9643C178.018 23.1119 177.964 23.2927 177.97 23.4816L178.018 24.7637C178.026 25.0716 177.963 25.3712 177.835 25.6398C177.706 25.9084 177.516 26.1389 177.278 26.314L176.276 27.0097C176.131 27.118 176.027 27.272 175.979 27.4501C175.931 27.6283 175.941 27.8218 176.008 28.0039C176.075 28.1859 176.195 28.3474 176.352 28.466C176.509 28.5845 176.695 28.6543 176.884 28.6655L178.142 28.7234C178.46 28.7405 178.775 28.8317 179.064 28.9897C179.352 29.1478 179.605 29.3682 179.802 29.6334L180.591 30.6988C180.711 30.8537 180.874 30.9708 181.055 31.0345Z" fill="#B9D15F"/>
<path opacity="0.5" d="M24.0554 38.7345C24.2371 38.7983 24.4292 38.8056 24.6054 38.7556C24.7816 38.7055 24.9331 38.6004 25.0391 38.4549C25.1455 38.3046 25.2016 38.1222 25.1994 37.9304L25.1509 36.6732C25.1407 36.3575 25.2042 36.05 25.3364 35.7752C25.4686 35.5004 25.666 35.2658 25.9127 35.09L26.9146 34.3916C27.0603 34.2816 27.1638 34.1256 27.2104 33.9455C27.2571 33.7653 27.2446 33.5702 27.1747 33.3875C27.1048 33.2048 26.981 33.0437 26.8207 32.9271C26.6605 32.8104 26.4719 32.744 26.2815 32.7372L25.022 32.677C24.7058 32.6603 24.3915 32.5701 24.1041 32.4137C23.8167 32.2573 23.5641 32.0389 23.3663 31.776L22.5781 30.7131C22.4569 30.558 22.2934 30.4404 22.1105 30.3768C21.9275 30.3132 21.7341 30.3067 21.5572 30.3582C21.3802 30.4098 21.2286 30.5167 21.1233 30.6643C21.018 30.8118 20.9643 30.9926 20.9698 31.1815L21.0182 32.4636C21.0256 32.7716 20.9628 33.0712 20.8346 33.3398C20.7063 33.6083 20.516 33.8389 20.2779 34.014L19.276 34.7096C19.1308 34.818 19.027 34.9719 18.979 35.1501C18.931 35.3283 18.9411 35.5218 19.008 35.7038C19.0749 35.8859 19.1952 36.0474 19.3522 36.1659C19.5093 36.2845 19.6953 36.3542 19.8843 36.3654L21.1421 36.4233C21.4598 36.4404 21.7753 36.5316 22.0636 36.6897C22.3518 36.8477 22.6047 37.0682 22.802 37.3334L23.5911 38.3987C23.7115 38.5536 23.8741 38.6708 24.0554 38.7345Z" fill="#B9D15F"/>
<path d="M123.064 38.9585C122.873 38.977 122.684 38.9383 122.525 38.8475C122.366 38.7568 122.244 38.6186 122.176 38.4519C122.109 38.2806 122.098 38.0901 122.146 37.9043L122.493 36.6952C122.579 36.391 122.59 36.0773 122.528 35.7788C122.465 35.4804 122.329 35.2054 122.132 34.9758L121.326 34.0582C121.211 33.9166 121.147 33.7404 121.145 33.5543C121.143 33.3682 121.202 33.1817 121.313 33.021C121.425 32.8603 121.583 32.7335 121.767 32.6585C121.95 32.5835 122.149 32.5641 122.336 32.603L123.573 32.8455C123.884 32.9048 124.211 32.8924 124.528 32.8092C124.844 32.726 125.142 32.5743 125.396 32.3662L126.416 31.5225C126.57 31.4008 126.757 31.3257 126.95 31.3077C127.143 31.2896 127.332 31.3295 127.492 31.4219C127.651 31.5142 127.773 31.6543 127.84 31.8227C127.907 31.9911 127.916 32.1795 127.866 32.3616L127.512 33.595C127.431 33.8923 127.421 34.1982 127.481 34.4897C127.541 34.7811 127.671 35.0505 127.861 35.2774L128.667 36.1923C128.782 36.3322 128.846 36.5065 128.85 36.691C128.854 36.8754 128.798 37.0609 128.69 37.2217C128.581 37.3825 128.426 37.5106 128.245 37.5882C128.064 37.6658 127.867 37.689 127.681 37.6547L126.446 37.4104C126.133 37.3511 125.805 37.3643 125.487 37.4489C125.17 37.5335 124.871 37.6871 124.616 37.8975L123.596 38.7434C123.442 38.8651 123.256 38.9399 123.064 38.9585Z" fill="#75BE75"/>
<path d="M115.729 18.1448C115.537 18.1633 115.349 18.1245 115.19 18.0338C115.031 17.9431 114.909 17.8049 114.841 17.6382C114.773 17.4669 114.762 17.2764 114.81 17.0906L115.158 15.8815C115.243 15.5773 115.255 15.2636 115.192 14.9651C115.13 14.6667 114.994 14.3917 114.796 14.162L113.99 13.2445C113.875 13.1029 113.812 12.9267 113.81 12.7406C113.807 12.5545 113.866 12.368 113.978 12.2073C114.089 12.0466 114.248 11.9198 114.432 11.8448C114.615 11.7698 114.814 11.7504 115.001 11.7893L116.238 12.0318C116.549 12.0911 116.876 12.0787 117.192 11.9955C117.509 11.9122 117.806 11.7606 118.061 11.5525L119.08 10.7088C119.235 10.5871 119.422 10.512 119.615 10.494C119.808 10.4759 119.997 10.5158 120.156 10.6081C120.316 10.7004 120.438 10.8406 120.505 11.009C120.572 11.1774 120.58 11.3658 120.53 11.5479L120.177 12.7813C120.096 13.0786 120.085 13.3845 120.146 13.6759C120.206 13.9674 120.336 14.2367 120.525 14.4636L121.332 15.3786C121.447 15.5185 121.511 15.6928 121.515 15.8772C121.519 16.0617 121.463 16.2472 121.354 16.408C121.246 16.5688 121.091 16.6968 120.91 16.7744C120.729 16.852 120.532 16.8753 120.345 16.841L119.11 16.5967C118.798 16.5374 118.469 16.5506 118.152 16.6352C117.834 16.7197 117.536 16.8734 117.281 17.0838L116.26 17.9297C116.106 18.0513 115.92 18.1262 115.729 18.1448Z" fill="#75BE75"/>
<path d="M189.729 18.1448C189.537 18.1633 189.349 18.1245 189.19 18.0338C189.031 17.9431 188.909 17.8049 188.841 17.6382C188.773 17.4669 188.762 17.2764 188.81 17.0906L189.158 15.8815C189.243 15.5773 189.255 15.2636 189.192 14.9651C189.13 14.6667 188.994 14.3917 188.796 14.162L187.99 13.2445C187.875 13.1029 187.812 12.9267 187.81 12.7406C187.807 12.5545 187.866 12.368 187.978 12.2073C188.089 12.0466 188.248 11.9198 188.432 11.8448C188.615 11.7698 188.814 11.7504 189.001 11.7893L190.238 12.0318C190.549 12.0911 190.876 12.0787 191.192 11.9955C191.509 11.9122 191.806 11.7606 192.061 11.5525L193.08 10.7088C193.235 10.5871 193.422 10.512 193.615 10.494C193.808 10.4759 193.997 10.5158 194.156 10.6081C194.316 10.7004 194.438 10.8406 194.505 11.009C194.572 11.1774 194.58 11.3658 194.53 11.5479L194.177 12.7813C194.096 13.0786 194.085 13.3845 194.146 13.6759C194.206 13.9674 194.336 14.2367 194.525 14.4636L195.332 15.3786C195.447 15.5185 195.511 15.6928 195.515 15.8772C195.519 16.0617 195.463 16.2472 195.354 16.408C195.246 16.5688 195.091 16.6968 194.91 16.7744C194.729 16.852 194.532 16.8753 194.345 16.841L193.11 16.5967C192.798 16.5374 192.469 16.5506 192.152 16.6352C191.834 16.7197 191.536 16.8734 191.281 17.0838L190.26 17.9297C190.106 18.0513 189.92 18.1262 189.729 18.1448Z" fill="#75BE75"/>
<path opacity="0.5" d="M53.729 27.1448C53.5374 27.1633 53.349 27.1245 53.1899 27.0338C53.0308 26.9431 52.9088 26.8049 52.8406 26.6382C52.7733 26.4669 52.7623 26.2764 52.8103 26.0906L53.1578 24.8815C53.2432 24.5773 53.255 24.2636 53.1923 23.9651C53.1295 23.6667 52.994 23.3917 52.7964 23.162L51.9905 22.2445C51.8752 22.1029 51.812 21.9267 51.8097 21.7406C51.8075 21.5545 51.8663 21.368 51.9778 21.2073C52.0893 21.0466 52.248 20.9198 52.4315 20.8448C52.615 20.7698 52.814 20.7504 53.0005 20.7893L54.2379 21.0318C54.5489 21.0911 54.8757 21.0787 55.1921 20.9955C55.5086 20.9122 55.8061 20.7606 56.061 20.5525L57.0803 19.7088C57.235 19.5871 57.4218 19.512 57.6147 19.494C57.8076 19.4759 57.9969 19.5158 58.1564 19.6081C58.3159 19.7004 58.4376 19.8406 58.5046 20.009C58.5716 20.1774 58.5805 20.3658 58.5301 20.5479L58.1767 21.7813C58.0959 22.0786 58.0853 22.3845 58.1456 22.6759C58.206 22.9674 58.3358 23.2367 58.5251 23.4636L59.3318 24.3786C59.4468 24.5185 59.5108 24.6928 59.5149 24.8772C59.5189 25.0617 59.4629 25.2472 59.3544 25.408C59.246 25.5688 59.0906 25.6968 58.9097 25.7744C58.7289 25.852 58.5317 25.8753 58.3454 25.841L57.1102 25.5967C56.7977 25.5374 56.4694 25.5506 56.1518 25.6352C55.8341 25.7197 55.5359 25.8734 55.281 26.0838L54.2602 26.9297C54.1062 27.0513 53.9203 27.1262 53.729 27.1448Z" fill="#00C752"/>
<path opacity="0.5" d="M147.903 38.9585C147.711 38.977 147.523 38.9383 147.364 38.8475C147.205 38.7568 147.083 38.6186 147.014 38.4519C146.947 38.2806 146.936 38.0901 146.984 37.9043L147.332 36.6952C147.417 36.391 147.429 36.0773 147.366 35.7788C147.303 35.4804 147.168 35.2054 146.97 34.9758L146.164 34.0582C146.049 33.9166 145.986 33.7404 145.984 33.5543C145.981 33.3682 146.04 33.1817 146.152 33.021C146.263 32.8603 146.422 32.7335 146.605 32.6585C146.789 32.5835 146.988 32.5641 147.174 32.603L148.412 32.8455C148.723 32.9048 149.049 32.8924 149.366 32.8092C149.682 32.726 149.98 32.5743 150.235 32.3662L151.254 31.5225C151.409 31.4008 151.596 31.3257 151.789 31.3077C151.981 31.2896 152.171 31.3295 152.33 31.4219C152.49 31.5142 152.611 31.6543 152.678 31.8227C152.745 31.9911 152.754 32.1795 152.704 32.3616L152.351 33.595C152.27 33.8923 152.259 34.1982 152.319 34.4897C152.38 34.7811 152.51 35.0505 152.699 35.2774L153.506 36.1923C153.621 36.3322 153.685 36.5065 153.689 36.691C153.693 36.8754 153.637 37.0609 153.528 37.2217C153.42 37.3825 153.264 37.5106 153.084 37.5882C152.903 37.6658 152.705 37.689 152.519 37.6547L151.284 37.4104C150.972 37.3511 150.643 37.3643 150.326 37.4489C150.008 37.5335 149.71 37.6871 149.455 37.8975L148.434 38.7434C148.28 38.8651 148.094 38.9399 147.903 38.9585Z" fill="#00C752"/>
<path opacity="0.5" d="M147.903 38.9585C147.711 38.977 147.523 38.9383 147.364 38.8475C147.205 38.7568 147.083 38.6186 147.014 38.4519C146.947 38.2806 146.936 38.0901 146.984 37.9043L147.332 36.6952C147.417 36.391 147.429 36.0773 147.366 35.7788C147.303 35.4804 147.168 35.2054 146.97 34.9758L146.164 34.0582C146.049 33.9166 145.986 33.7404 145.984 33.5543C145.981 33.3682 146.04 33.1817 146.152 33.021C146.263 32.8603 146.422 32.7335 146.605 32.6585C146.789 32.5835 146.988 32.5641 147.174 32.603L148.412 32.8455C148.723 32.9048 149.049 32.8924 149.366 32.8092C149.682 32.726 149.98 32.5743 150.235 32.3662L151.254 31.5225C151.409 31.4008 151.596 31.3257 151.789 31.3077C151.981 31.2896 152.171 31.3295 152.33 31.4219C152.49 31.5142 152.611 31.6543 152.678 31.8227C152.745 31.9911 152.754 32.1795 152.704 32.3616L152.351 33.595C152.27 33.8923 152.259 34.1982 152.319 34.4897C152.38 34.7811 152.51 35.0505 152.699 35.2774L153.506 36.1923C153.621 36.3322 153.685 36.5065 153.689 36.691C153.693 36.8754 153.637 37.0609 153.528 37.2217C153.42 37.3825 153.264 37.5106 153.084 37.5882C152.903 37.6658 152.705 37.689 152.519 37.6547L151.284 37.4104C150.972 37.3511 150.643 37.3643 150.326 37.4489C150.008 37.5335 149.71 37.6871 149.455 37.8975L148.434 38.7434C148.28 38.8651 148.094 38.9399 147.903 38.9585Z" fill="#00C752"/>
<path opacity="0.5" d="M213.903 38.9585C213.711 38.977 213.523 38.9383 213.364 38.8475C213.205 38.7568 213.083 38.6186 213.014 38.4519C212.947 38.2806 212.936 38.0901 212.984 37.9043L213.332 36.6952C213.417 36.391 213.429 36.0773 213.366 35.7788C213.303 35.4804 213.168 35.2054 212.97 34.9758L212.164 34.0582C212.049 33.9166 211.986 33.7404 211.984 33.5543C211.981 33.3682 212.04 33.1817 212.152 33.021C212.263 32.8603 212.422 32.7335 212.605 32.6585C212.789 32.5835 212.988 32.5641 213.174 32.603L214.412 32.8455C214.723 32.9048 215.049 32.8924 215.366 32.8092C215.682 32.726 215.98 32.5743 216.235 32.3662L217.254 31.5225C217.409 31.4008 217.596 31.3257 217.789 31.3077C217.981 31.2896 218.171 31.3295 218.33 31.4219C218.49 31.5142 218.611 31.6543 218.678 31.8227C218.745 31.9911 218.754 32.1795 218.704 32.3616L218.351 33.595C218.27 33.8923 218.259 34.1982 218.319 34.4897C218.38 34.7811 218.51 35.0505 218.699 35.2774L219.506 36.1923C219.621 36.3322 219.685 36.5065 219.689 36.691C219.693 36.8754 219.637 37.0609 219.528 37.2217C219.42 37.3825 219.264 37.5106 219.084 37.5882C218.903 37.6658 218.705 37.689 218.519 37.6547L217.284 37.4104C216.972 37.3511 216.643 37.3643 216.326 37.4489C216.008 37.5335 215.71 37.6871 215.455 37.8975L214.434 38.7434C214.28 38.8651 214.094 38.9399 213.903 38.9585Z" fill="#00C752"/>
</g>
<defs>
<clipPath id="clip0_445_92">
<rect width="240" height="40" fill="white" transform="translate(0.5 0.5)"/>
</clipPath>
</defs>
</svg>
