<svg width="33" height="32" viewBox="0 0 33 32" fill="none" xmlns="http://www.w3.org/2000/svg">
<g id="Group">
<path id="Vector" d="M15.046 -6.10352e-05H6.48493C0.666748 -6.10352e-05 0.666748 5.80305 0.666748 5.80305V14.3419H4.28233V8.74605L5.27974 9.74087C6.56805 11.0258 8.64597 11.0258 9.93428 9.74087L10.5577 9.11911C11.846 7.83414 11.846 5.7616 10.5577 4.47662L9.68493 3.60616H15.046V-6.10352e-05Z" fill="#F9B350"/>
<path id="Vector_2" d="M32.6669 14.3419V5.80305C32.6669 -6.10352e-05 26.8487 -6.10352e-05 26.8487 -6.10352e-05H18.2461V3.60616H23.8565L22.8591 4.60097C21.5708 5.88595 21.5708 7.95849 22.8591 9.24346L23.4825 9.86522C24.7708 11.1502 26.8487 11.1502 28.137 9.86522L29.0097 8.99476V14.3419H32.6669Z" fill="#C25C9E"/>
<path id="Vector_3" d="M0.666748 17.6581V26.197C0.666748 32.0001 6.48493 32.0001 6.48493 32.0001H15.046V28.3939H9.43558L10.433 27.3991C11.7213 26.1141 11.7213 24.0416 10.433 22.7566L9.80961 22.1348C8.52129 20.8499 6.44337 20.8499 5.15506 22.1348L4.28233 23.0053V17.6581H0.666748Z" fill="#B9D15F"/>
<path id="Vector_4" d="M18.2461 32.0001H26.8071C32.6253 32.0001 32.6253 26.197 32.6253 26.197V17.6581H29.0097V23.254L28.0123 22.2592C26.724 20.9742 24.6461 20.9742 23.3578 22.2592L22.7344 22.8809C21.4461 24.1659 21.4461 26.2385 22.7344 27.5234L23.6071 28.3939H18.2461V32.0001Z" fill="#2798D5"/>
</g>
</svg>
