<svg width="375" height="64" viewBox="0 0 375 64" fill="none" xmlns="http://www.w3.org/2000/svg">
<g clip-path="url(#clip0_383_906)">
<g style="mix-blend-mode:multiply">
<rect width="375" height="64" transform="matrix(-1 8.74228e-08 8.74228e-08 1 375 0)" fill="url(#paint0_linear_383_906)"/>
</g>
<path d="M235.298 52.5641C235.404 52.6073 235.516 52.6123 235.619 52.5784C235.722 52.5444 235.811 52.4731 235.873 52.3743C235.935 52.2723 235.968 52.1486 235.966 52.0184L235.938 51.1653C235.932 50.951 235.969 50.7423 236.046 50.5558C236.123 50.3694 236.239 50.2102 236.383 50.0909L236.968 49.6169C237.053 49.5423 237.113 49.4364 237.141 49.3142C237.168 49.1919 237.161 49.0595 237.12 48.9355C237.079 48.8115 237.007 48.7022 236.913 48.6231C236.819 48.5439 236.709 48.4988 236.598 48.4942L235.863 48.4534C235.678 48.442 235.494 48.3809 235.327 48.2747C235.159 48.1686 235.011 48.0204 234.896 47.8419L234.435 47.1207C234.365 47.0154 234.269 46.9356 234.162 46.8925C234.056 46.8493 233.943 46.8449 233.839 46.8799C233.736 46.9148 233.647 46.9874 233.586 47.0875C233.524 47.1877 233.493 47.3104 233.496 47.4385L233.525 48.3086C233.529 48.5176 233.492 48.7209 233.417 48.9031C233.342 49.0854 233.231 49.2419 233.092 49.3607L232.507 49.8328C232.422 49.9063 232.362 50.0108 232.334 50.1317C232.306 50.2526 232.312 50.3839 232.351 50.5074C232.39 50.6309 232.46 50.7405 232.552 50.821C232.643 50.9015 232.752 50.9488 232.862 50.9564L233.597 50.9957C233.782 51.0073 233.967 51.0692 234.135 51.1764C234.303 51.2837 234.451 51.4333 234.566 51.6132L235.027 52.3362C235.097 52.4413 235.192 52.5208 235.298 52.5641Z" fill="#B9D15F"/>
<path d="M332.67 38.3012C332.811 38.3589 332.961 38.3656 333.098 38.3203C333.235 38.275 333.353 38.1799 333.436 38.0482C333.519 37.9123 333.562 37.7473 333.561 37.5736L333.523 36.4362C333.515 36.1505 333.564 35.8723 333.667 35.6236C333.77 35.375 333.924 35.1627 334.116 35.0036L334.896 34.3717C335.01 34.2722 335.09 34.1311 335.127 33.9681C335.163 33.8051 335.153 33.6285 335.099 33.4632C335.044 33.2979 334.948 33.1522 334.823 33.0466C334.698 32.941 334.551 32.8809 334.403 32.8748L333.423 32.8203C333.176 32.8052 332.932 32.7236 332.708 32.5821C332.484 32.4406 332.287 32.243 332.133 32.0051L331.52 31.0434C331.425 30.903 331.298 30.7967 331.156 30.7391C331.013 30.6816 330.862 30.6757 330.725 30.7223C330.587 30.7689 330.469 30.8657 330.387 30.9992C330.305 31.1327 330.263 31.2963 330.267 31.4672L330.305 32.6273C330.311 32.9059 330.262 33.177 330.162 33.42C330.062 33.663 329.914 33.8716 329.729 34.03L328.949 34.6595C328.835 34.7575 328.755 34.8968 328.717 35.058C328.68 35.2192 328.688 35.3943 328.74 35.559C328.792 35.7237 328.886 35.8699 329.008 35.9772C329.13 36.0844 329.275 36.1475 329.422 36.1577L330.402 36.21C330.649 36.2255 330.895 36.3081 331.119 36.4511C331.343 36.5941 331.54 36.7935 331.694 37.0335L332.308 37.9974C332.402 38.1376 332.529 38.2436 332.67 38.3012Z" fill="#75BE75"/>
<path d="M32.1043 25.6269C32.2457 25.6846 32.3953 25.6913 32.5325 25.646C32.6697 25.6007 32.7877 25.5056 32.8702 25.3739C32.953 25.238 32.9967 25.0729 32.995 24.8993L32.9573 23.7619C32.9493 23.4762 32.9987 23.198 33.1017 22.9493C33.2047 22.7006 33.3583 22.4884 33.5505 22.3293L34.3305 21.6974C34.444 21.5979 34.5246 21.4567 34.5609 21.2938C34.5972 21.1308 34.5875 20.9542 34.5331 20.7889C34.4786 20.6235 34.3822 20.4778 34.2574 20.3723C34.1327 20.2667 33.9858 20.2066 33.8376 20.2005L32.8569 20.146C32.6107 20.1309 32.366 20.0493 32.1422 19.9078C31.9184 19.7663 31.7217 19.5687 31.5677 19.3307L30.954 18.3691C30.8596 18.2287 30.7323 18.1223 30.5899 18.0648C30.4474 18.0072 30.2968 18.0014 30.159 18.048C30.0213 18.0946 29.9032 18.1914 29.8212 18.3249C29.7393 18.4584 29.6975 18.622 29.7017 18.7929L29.7394 19.9529C29.7452 20.2316 29.6963 20.5027 29.5964 20.7457C29.4966 20.9887 29.3483 21.1973 29.163 21.3557L28.3828 21.9852C28.2698 22.0832 28.189 22.2225 28.1516 22.3837C28.1142 22.5449 28.1221 22.72 28.1742 22.8847C28.2263 23.0494 28.3199 23.1956 28.4422 23.3028C28.5645 23.4101 28.7093 23.4732 28.8565 23.4834L29.8359 23.5357C30.0832 23.5512 30.3289 23.6337 30.5534 23.7767C30.7778 23.9197 30.9747 24.1192 31.1283 24.3592L31.7427 25.3231C31.8365 25.4633 31.9631 25.5692 32.1043 25.6269Z" fill="#75BE75"/>
<path d="M181.232 53.3818C181.356 53.4323 181.487 53.4381 181.607 53.3985C181.727 53.3588 181.83 53.2757 181.902 53.1604C181.975 53.0415 182.013 52.8971 182.011 52.7452L181.978 51.7499C181.971 51.4999 182.015 51.2565 182.105 51.0389C182.195 50.8213 182.329 50.6356 182.497 50.4964L183.18 49.9435C183.279 49.8564 183.35 49.7329 183.381 49.5903C183.413 49.4477 183.405 49.2931 183.357 49.1485C183.309 49.0038 183.225 48.8764 183.116 48.784C183.007 48.6916 182.878 48.6391 182.749 48.6337L181.89 48.586C181.675 48.5728 181.461 48.5014 181.265 48.3776C181.069 48.2537 180.897 48.0809 180.762 47.8727L180.225 47.0312C180.143 46.9084 180.031 46.8153 179.907 46.7649C179.782 46.7146 179.65 46.7094 179.53 46.7502C179.409 46.791 179.306 46.8757 179.234 46.9925C179.162 47.1094 179.126 47.2525 179.13 47.402L179.163 48.4171C179.168 48.6609 179.125 48.8981 179.038 49.1107C178.95 49.3234 178.82 49.5059 178.658 49.6445L177.976 50.1953C177.877 50.2811 177.806 50.4029 177.773 50.544C177.741 50.685 177.747 50.8383 177.793 50.9824C177.839 51.1265 177.921 51.2544 178.028 51.3482C178.135 51.4421 178.261 51.4973 178.39 51.5062L179.247 51.552C179.463 51.5655 179.678 51.6378 179.875 51.7629C180.071 51.888 180.244 52.0626 180.378 52.2725L180.916 53.116C180.998 53.2386 181.108 53.3313 181.232 53.3818Z" fill="#B9D15F"/>
<path d="M325.797 55.6975C325.606 55.7191 325.418 55.6741 325.259 55.5688C325.1 55.4635 324.978 55.3031 324.91 55.1097C324.843 54.9109 324.832 54.6898 324.88 54.4741L325.227 53.071C325.312 52.718 325.324 52.3539 325.261 52.0075C325.198 51.6612 325.063 51.3421 324.866 51.0755L324.061 50.0107C323.946 49.8464 323.883 49.6419 323.88 49.4259C323.878 49.21 323.937 48.9935 324.048 48.807C324.16 48.6205 324.318 48.4734 324.501 48.3864C324.685 48.2993 324.883 48.2768 325.07 48.3219L326.305 48.6034C326.616 48.6722 326.942 48.6578 327.258 48.5612C327.574 48.4646 327.871 48.2886 328.126 48.0471L329.144 47.068C329.298 46.9268 329.485 46.8396 329.678 46.8187C329.87 46.7978 330.059 46.8441 330.219 46.9512C330.378 47.0583 330.499 47.2209 330.566 47.4164C330.633 47.6119 330.642 47.8305 330.592 48.0418L330.239 49.4732C330.158 49.8182 330.148 50.1732 330.208 50.5114C330.268 50.8497 330.398 51.1622 330.587 51.4256L331.392 52.4873C331.507 52.6497 331.571 52.852 331.575 53.066C331.579 53.2801 331.523 53.4954 331.415 53.682C331.307 53.8686 331.152 54.0172 330.971 54.1073C330.79 54.1973 330.593 54.2243 330.407 54.1845L329.174 53.901C328.862 53.8322 328.534 53.8475 328.217 53.9456C327.899 54.0438 327.602 54.2221 327.347 54.4662L326.328 55.4479C326.174 55.5891 325.988 55.676 325.797 55.6975Z" fill="#75BE75"/>
<path d="M342.774 25.1929C342.583 25.2144 342.395 25.1694 342.236 25.0641C342.077 24.9588 341.955 24.7984 341.887 24.605C341.82 24.4062 341.809 24.1851 341.857 23.9695L342.204 22.5663C342.289 22.2133 342.301 21.8492 342.238 21.5029C342.176 21.1565 342.04 20.8374 341.843 20.5709L341.038 19.5061C340.923 19.3418 340.86 19.1372 340.858 18.9213C340.855 18.7054 340.914 18.4889 341.026 18.3024C341.137 18.1159 341.295 17.9688 341.479 17.8817C341.662 17.7947 341.861 17.7722 342.047 17.8173L343.283 18.0988C343.593 18.1676 343.92 18.1531 344.236 18.0566C344.552 17.96 344.849 17.784 345.103 17.5425L346.121 16.5634C346.276 16.4222 346.462 16.335 346.655 16.3141C346.848 16.2931 347.037 16.3394 347.196 16.4466C347.355 16.5537 347.477 16.7163 347.544 16.9118C347.611 17.1072 347.619 17.3258 347.569 17.5372L347.216 18.9685C347.135 19.3135 347.125 19.6686 347.185 20.0068C347.245 20.345 347.375 20.6576 347.564 20.9209L348.37 21.9827C348.485 22.1451 348.549 22.3473 348.553 22.5614C348.557 22.7755 348.501 22.9908 348.392 23.1774C348.284 23.3639 348.129 23.5126 347.948 23.6026C347.768 23.6927 347.571 23.7197 347.385 23.6799L346.151 23.3963C345.839 23.3275 345.511 23.3428 345.194 23.441C344.877 23.5392 344.579 23.7175 344.324 23.9616L343.305 24.9433C343.151 25.0845 342.965 25.1714 342.774 25.1929Z" fill="#75BE75"/>
<path d="M304.231 46.8176C304.116 46.8305 304.003 46.8035 303.908 46.7402C303.813 46.677 303.739 46.5806 303.698 46.4644C303.658 46.345 303.651 46.2122 303.68 46.0827L303.889 45.2398C303.94 45.0277 303.947 44.809 303.909 44.601C303.872 44.3929 303.79 44.2012 303.672 44.0411L303.188 43.4015C303.119 43.3028 303.081 43.1799 303.08 43.0502C303.079 42.9205 303.114 42.7904 303.181 42.6784C303.248 42.5664 303.343 42.478 303.453 42.4257C303.563 42.3734 303.682 42.3599 303.794 42.387L304.537 42.5561C304.723 42.5974 304.919 42.5887 305.109 42.5307C305.299 42.4727 305.477 42.367 305.63 42.2219L306.242 41.6338C306.335 41.5489 306.447 41.4966 306.562 41.484C306.678 41.4714 306.792 41.4993 306.887 41.5636C306.983 41.628 307.056 41.7256 307.096 41.8431C307.136 41.9605 307.142 42.0918 307.112 42.2187L306.9 43.0786C306.851 43.2858 306.845 43.4991 306.881 43.7022C306.917 43.9054 306.995 44.0932 307.109 44.2514L307.592 44.8892C307.662 44.9867 307.7 45.1082 307.702 45.2368C307.705 45.3654 307.671 45.4947 307.606 45.6068C307.541 45.7189 307.448 45.8082 307.339 45.8623C307.231 45.9164 307.113 45.9326 307.001 45.9087L306.26 45.7384C306.072 45.697 305.875 45.7062 305.685 45.7652C305.494 45.8241 305.315 45.9313 305.162 46.0779L304.55 46.6676C304.458 46.7524 304.346 46.8046 304.231 46.8176Z" fill="#00C752"/>
<path d="M358.916 49.3471C358.725 49.3686 358.537 49.3236 358.378 49.2183C358.219 49.113 358.097 48.9526 358.029 48.7592C357.962 48.5604 357.951 48.3393 357.999 48.1237L358.346 46.7205C358.431 46.3675 358.443 46.0034 358.38 45.6571C358.318 45.3107 358.182 44.9916 357.985 44.7251L357.18 43.6602C357.065 43.4959 357.002 43.2914 357 43.0755C356.997 42.8595 357.056 42.6431 357.167 42.4566C357.279 42.2701 357.437 42.1229 357.62 42.0359C357.804 41.9489 358.002 41.9263 358.189 41.9715L359.424 42.2529C359.735 42.3217 360.061 42.3073 360.377 42.2107C360.693 42.1142 360.991 41.9382 361.245 41.6967L362.263 40.7176C362.418 40.5763 362.604 40.4892 362.797 40.4682C362.989 40.4473 363.179 40.4936 363.338 40.6007C363.497 40.7079 363.619 40.8705 363.686 41.0659C363.752 41.2614 363.761 41.48 363.711 41.6914L363.358 43.1227C363.277 43.4677 363.267 43.8227 363.327 44.161C363.387 44.4992 363.517 44.8118 363.706 45.0751L364.512 46.1369C364.626 46.2992 364.69 46.5015 364.694 46.7156C364.699 46.9297 364.643 47.1449 364.534 47.3315C364.426 47.5181 364.271 47.6668 364.09 47.7568C363.91 47.8469 363.713 47.8739 363.526 47.8341L362.293 47.5505C361.981 47.4817 361.653 47.497 361.336 47.5952C361.019 47.6933 360.721 47.8716 360.466 48.1158L359.447 49.0975C359.293 49.2387 359.107 49.3255 358.916 49.3471Z" fill="#00C752"/>
<path d="M33.8431 47.237C33.9845 47.2947 34.1341 47.3014 34.2713 47.2561C34.4085 47.2108 34.5265 47.1157 34.609 46.984C34.6918 46.8481 34.7355 46.683 34.7338 46.5094L34.696 45.372C34.6881 45.0863 34.7375 44.8081 34.8405 44.5594C34.9434 44.3108 35.0971 44.0985 35.2892 43.9394L36.0693 43.3075C36.1827 43.208 36.2633 43.0669 36.2997 42.9039C36.336 42.7409 36.3263 42.5643 36.2718 42.399C36.2174 42.2336 36.121 42.0879 35.9962 41.9824C35.8714 41.8768 35.7246 41.8167 35.5763 41.8106L34.5956 41.7561C34.3494 41.741 34.1047 41.6594 33.881 41.5179C33.6572 41.3764 33.4605 41.1788 33.3065 40.9409L32.6927 39.9792C32.5984 39.8388 32.4711 39.7324 32.3286 39.6749C32.1862 39.6173 32.0356 39.6115 31.8978 39.6581C31.7601 39.7047 31.642 39.8015 31.56 39.935C31.478 40.0685 31.4362 40.2321 31.4404 40.403L31.4782 41.563C31.484 41.8417 31.4351 42.1128 31.3352 42.3558C31.2353 42.5988 31.0871 42.8074 30.9017 42.9658L30.1216 43.5953C30.0086 43.6933 29.9278 43.8326 29.8904 43.9938C29.853 44.155 29.8609 44.3301 29.913 44.4948C29.965 44.6595 30.0587 44.8057 30.181 44.9129C30.3033 45.0202 30.4481 45.0833 30.5953 45.0935L31.5747 45.1458C31.822 45.1613 32.0677 45.2439 32.2921 45.3869C32.5166 45.5299 32.7135 45.7293 32.8671 45.9693L33.4815 46.9332C33.5752 47.0734 33.7019 47.1793 33.8431 47.237Z" fill="#B9D15F"/>
<path d="M130.649 54.3587C130.793 54.4174 130.945 54.4242 131.084 54.3781C131.224 54.332 131.344 54.2354 131.428 54.1015C131.512 53.9632 131.556 53.7954 131.555 53.6189L131.516 52.4622C131.508 52.1717 131.558 51.8887 131.663 51.6359C131.768 51.383 131.924 51.1672 132.119 51.0054L132.913 50.3628C133.028 50.2617 133.11 50.1181 133.147 49.9524C133.184 49.7866 133.174 49.607 133.119 49.4389C133.063 49.2708 132.965 49.1227 132.838 49.0153C132.711 48.908 132.562 48.8469 132.411 48.8406L131.414 48.7852C131.164 48.7698 130.915 48.6869 130.687 48.543C130.46 48.3991 130.26 48.1981 130.103 47.9562L129.479 46.9783C129.383 46.8355 129.254 46.7274 129.109 46.6688C128.964 46.6103 128.811 46.6043 128.671 46.6517C128.531 46.6991 128.411 46.7976 128.327 46.9333C128.244 47.0691 128.201 47.2354 128.206 47.4092L128.244 48.5889C128.25 48.8723 128.2 49.1479 128.099 49.395C127.997 49.6422 127.846 49.8543 127.658 50.0154L126.864 50.6555C126.75 50.7552 126.667 50.8968 126.629 51.0607C126.591 51.2247 126.599 51.4027 126.652 51.5702C126.705 51.7377 126.8 51.8863 126.925 51.9954C127.049 52.1045 127.196 52.1686 127.346 52.179L128.342 52.2322C128.594 52.248 128.843 52.3319 129.072 52.4773C129.3 52.6227 129.5 52.8256 129.656 53.0696L130.281 54.0498C130.376 54.1923 130.505 54.3001 130.649 54.3587Z" fill="#0F9D58"/>
<path d="M72.8893 51.4307C72.7552 51.4457 72.6234 51.4142 72.512 51.3404C72.4007 51.2666 72.3153 51.1542 72.2676 51.0187C72.2204 50.8793 72.2128 50.7244 72.2464 50.5733L72.4896 49.5899C72.5493 49.3425 72.5576 49.0873 72.5137 48.8446C72.4698 48.6019 72.3749 48.3782 72.2366 48.1915L71.6726 47.4452C71.5919 47.3301 71.5477 47.1867 71.5461 47.0354C71.5445 46.8841 71.5856 46.7323 71.6637 46.6016C71.7418 46.4709 71.8528 46.3678 71.9812 46.3068C72.1097 46.2458 72.2489 46.23 72.3795 46.2617L73.2455 46.4589C73.4632 46.5071 73.6919 46.497 73.9134 46.4294C74.1348 46.3617 74.3431 46.2383 74.5215 46.0691L75.2349 45.3829C75.3432 45.2839 75.4739 45.2229 75.6089 45.2082C75.7439 45.1935 75.8764 45.226 75.9881 45.301C76.0997 45.3761 76.1849 45.4901 76.2317 45.6271C76.2786 45.764 76.2849 45.9173 76.2496 46.0654L76.0022 47.0685C75.9457 47.3103 75.9383 47.5591 75.9805 47.7961C76.0228 48.0331 76.1136 48.2522 76.2461 48.4368L76.8107 49.1809C76.8912 49.2947 76.936 49.4364 76.9388 49.5864C76.9417 49.7365 76.9024 49.8873 76.8265 50.0181C76.7506 50.1489 76.6419 50.253 76.5153 50.3162C76.3887 50.3793 76.2507 50.3982 76.1203 50.3703L75.2558 50.1716C75.0371 50.1234 74.8073 50.1341 74.585 50.2029C74.3627 50.2717 74.1539 50.3966 73.9755 50.5677L73.2611 51.2557C73.1534 51.3547 73.0232 51.4156 72.8893 51.4307Z" fill="#3A8844"/>
<path d="M59.7453 35.0981C59.6153 35.1127 59.4875 35.0821 59.3796 35.0106C59.2716 34.9391 59.1889 34.8301 59.1426 34.6987C59.0969 34.5637 59.0895 34.4135 59.1221 34.267L59.3578 33.3139C59.4157 33.0741 59.4237 32.8268 59.3812 32.5915C59.3386 32.3562 59.2467 32.1395 59.1126 31.9584L58.5659 31.2351C58.4877 31.1235 58.4448 30.9845 58.4433 30.8379C58.4418 30.6912 58.4816 30.5441 58.5573 30.4174C58.633 30.2908 58.7406 30.1908 58.8651 30.1317C58.9896 30.0726 59.1246 30.0573 59.2511 30.0879L60.0905 30.2791C60.3015 30.3259 60.5232 30.316 60.7378 30.2505C60.9525 30.1849 61.1543 30.0653 61.3273 29.9013L62.0188 29.2362C62.1237 29.1402 62.2505 29.081 62.3813 29.0668C62.5122 29.0526 62.6406 29.084 62.7488 29.1568C62.857 29.2296 62.9396 29.34 62.985 29.4728C63.0304 29.6056 63.0365 29.7541 63.0023 29.8976L62.7626 30.8699C62.7077 31.1043 62.7005 31.3455 62.7415 31.5752C62.7824 31.805 62.8705 32.0173 62.9989 32.1962L63.5461 32.9174C63.6242 33.0277 63.6676 33.1651 63.6704 33.3105C63.6731 33.456 63.6351 33.6022 63.5615 33.7289C63.4879 33.8557 63.3825 33.9567 63.2598 34.0178C63.1372 34.079 63.0034 34.0973 62.877 34.0703L62.039 33.8777C61.827 33.8309 61.6044 33.8413 61.3889 33.908C61.1734 33.9747 60.971 34.0958 60.7981 34.2617L60.1056 34.9285C60.0012 35.0244 59.8751 35.0834 59.7453 35.0981Z" fill="#75BE75"/>
<path d="M12.2234 35.6376C12.032 35.6591 11.8439 35.6141 11.685 35.5088C11.5261 35.4035 11.4042 35.2431 11.3362 35.0497C11.2689 34.8509 11.258 34.6298 11.3059 34.4142L11.6529 33.011C11.7382 32.658 11.75 32.2939 11.6874 31.9476C11.6247 31.6012 11.4893 31.2821 11.292 31.0156L10.4871 29.9508C10.372 29.7865 10.3089 29.582 10.3067 29.366C10.3044 29.1501 10.3631 28.9336 10.4745 28.7471C10.5859 28.5606 10.7444 28.4135 10.9276 28.3264C11.1108 28.2394 11.3096 28.2169 11.4958 28.262L12.7316 28.5435C13.0422 28.6123 13.3685 28.5978 13.6845 28.5013C14.0006 28.4047 14.2977 28.2287 14.5522 27.9872L15.5702 27.0081C15.7248 26.8669 15.9113 26.7797 16.1039 26.7588C16.2966 26.7378 16.4857 26.7841 16.6449 26.8913C16.8042 26.9984 16.9258 27.161 16.9926 27.3565C17.0595 27.5519 17.0684 27.7705 17.0181 27.9819L16.6652 29.4132C16.5845 29.7582 16.5739 30.1133 16.6341 30.4515C16.6944 30.7897 16.824 31.1023 17.0131 31.3656L17.8187 32.4274C17.9336 32.5898 17.9975 32.792 18.0016 33.0061C18.0056 33.2202 17.9496 33.4355 17.8413 33.6221C17.733 33.8086 17.5778 33.9573 17.3972 34.0473C17.2167 34.1374 17.0197 34.1644 16.8336 34.1246L15.6001 33.841C15.288 33.7722 14.9602 33.7875 14.6429 33.8857C14.3257 33.9839 14.0278 34.1622 13.7733 34.4063L12.7538 35.388C12.6001 35.5292 12.4144 35.6161 12.2234 35.6376Z" fill="#00C752"/>
<path d="M99.8816 54.0544C99.7283 54.0716 99.5776 54.0356 99.4504 53.9512C99.3231 53.8669 99.2255 53.7384 99.171 53.5835C99.1171 53.4243 99.1083 53.2472 99.1467 53.0745L99.4247 51.9506C99.493 51.6679 99.5024 51.3763 99.4522 51.0989C99.4021 50.8215 99.2936 50.5659 99.1356 50.3524L98.4909 49.4995C98.3988 49.368 98.3482 49.2042 98.3464 49.0312C98.3446 48.8582 98.3916 48.6849 98.4808 48.5355C98.57 48.3861 98.697 48.2683 98.8437 48.1986C98.9905 48.1289 99.1497 48.1108 99.2989 48.1469L100.289 48.3724C100.537 48.4275 100.799 48.4159 101.052 48.3386C101.305 48.2613 101.543 48.1203 101.747 47.9269L102.562 47.1427C102.686 47.0295 102.835 46.9597 102.99 46.943C103.144 46.9262 103.295 46.9633 103.423 47.0491C103.551 47.1349 103.648 47.2651 103.701 47.4217C103.755 47.5782 103.762 47.7533 103.722 47.9226L103.439 49.069C103.375 49.3453 103.366 49.6297 103.414 49.9006C103.463 50.1715 103.566 50.4219 103.718 50.6328L104.363 51.4832C104.455 51.6132 104.506 51.7752 104.51 51.9467C104.513 52.1182 104.468 52.2906 104.381 52.44C104.294 52.5895 104.17 52.7085 104.026 52.7807C103.881 52.8528 103.723 52.8744 103.574 52.8425L102.586 52.6154C102.336 52.5603 102.074 52.5726 101.819 52.6512C101.565 52.7298 101.327 52.8726 101.123 53.0682L100.306 53.8544C100.183 53.9675 100.035 54.0371 99.8816 54.0544Z" fill="#00C752"/>
<g filter="url(#filter0_d_383_906)">
<text fill="white" xml:space="preserve" style="white-space: pre" font-family="Assistant" font-size="24" font-weight="800" letter-spacing="0.5px"><tspan x="77.3711" y="36.808">&#x5d2;&#x5d0;&#x5d4; &#x5dc;&#x5d4;&#x5ea;&#x5e0;&#x5d3;&#x5d1; &#x5d1;&#x5d9;&#x5d3;&#x5d9;&#x5d3;&#x5d9;&#x5dd;!</tspan></text>
</g>
</g>
<defs>
<filter id="filter0_d_383_906" x="71.291" y="12.792" width="232.446" height="33.712" filterUnits="userSpaceOnUse" color-interpolation-filters="sRGB">
<feFlood flood-opacity="0" result="BackgroundImageFix"/>
<feColorMatrix in="SourceAlpha" type="matrix" values="0 0 0 0 0 0 0 0 0 0 0 0 0 0 0 0 0 0 127 0" result="hardAlpha"/>
<feOffset dy="1"/>
<feGaussianBlur stdDeviation="4"/>
<feComposite in2="hardAlpha" operator="out"/>
<feColorMatrix type="matrix" values="0 0 0 0 0 0 0 0 0 0 0 0 0 0 0 0 0 0 0.075 0"/>
<feBlend mode="normal" in2="BackgroundImageFix" result="effect1_dropShadow_383_906"/>
<feBlend mode="normal" in="SourceGraphic" in2="effect1_dropShadow_383_906" result="shape"/>
</filter>
<linearGradient id="paint0_linear_383_906" x1="188" y1="51.4286" x2="187.529" y2="-9.13922" gradientUnits="userSpaceOnUse">
<stop/>
<stop offset="1" stop-color="white" stop-opacity="0"/>
</linearGradient>
<clipPath id="clip0_383_906">
<rect width="375" height="64" fill="white"/>
</clipPath>
</defs>
</svg>
