<svg width="33" height="33" viewBox="0 0 33 33" fill="none" xmlns="http://www.w3.org/2000/svg">
<g id="Group">
<path id="Vector" d="M15.2127 0.5H6.65168C0.833496 0.5 0.833496 6.30311 0.833496 6.30311V14.842H4.44908V9.24611L5.44648 10.2409C6.7348 11.5259 8.81272 11.5259 10.101 10.2409L10.7244 9.61917C12.0127 8.3342 12.0127 6.26166 10.7244 4.97668L9.85168 4.10622H15.2127V0.5Z" fill="#F9B350"/>
<path id="Vector_2" d="M32.8336 14.842V6.30311C32.8336 0.5 27.0154 0.5 27.0154 0.5H18.4128V4.10622H24.0232L23.0258 5.10104C21.7375 6.38601 21.7375 8.45855 23.0258 9.74352L23.6492 10.3653C24.9375 11.6503 27.0154 11.6503 28.3038 10.3653L29.1765 9.49482V14.842H32.8336Z" fill="#C25C9E"/>
<path id="Vector_3" d="M0.833496 18.1582V26.6971C0.833496 32.5002 6.65168 32.5002 6.65168 32.5002H15.2127V28.894H9.60233L10.5997 27.8991C11.888 26.6142 11.888 24.5416 10.5997 23.2566L9.97635 22.6349C8.68804 21.3499 6.61012 21.3499 5.32181 22.6349L4.44908 23.5054V18.1582H0.833496Z" fill="#B9D15F"/>
<path id="Vector_4" d="M18.4128 32.5002H26.9739C32.7921 32.5002 32.7921 26.6971 32.7921 26.6971V18.1582H29.1765V23.7541L28.1791 22.7592C26.8908 21.4743 24.8128 21.4743 23.5245 22.7592L22.9012 23.381C21.6128 24.666 21.6128 26.7385 22.9012 28.0235L23.7739 28.894H18.4128V32.5002Z" fill="#2798D5"/>
</g>
</svg>
