<svg width="201" height="201" viewBox="0 0 201 201" fill="none" xmlns="http://www.w3.org/2000/svg">
<g id="Medal" clip-path="url(#clip0_383_197)">
<g id="Group 60">
<path id="Rectangle 1361" d="M63.8 100.4H138.2V169.25C138.2 171.981 135.525 173.908 132.935 173.045L102.265 162.822C101.444 162.548 100.556 162.548 99.7351 162.822L69.065 173.045C66.4748 173.908 63.8 171.981 63.8 169.25V100.4Z" fill="url(#paint0_linear_383_197)"/>
<circle id="Ellipse 18" cx="101" cy="88" r="62" fill="url(#paint1_linear_383_197)"/>
<circle id="Ellipse 19" cx="101" cy="88" r="50" fill="url(#paint2_linear_383_197)"/>
<g id="Ellipse 22" style="mix-blend-mode:multiply">
<path d="M68.8606 49.6978C79.019 41.1739 92.1474 37.0345 105.358 38.1903C118.568 39.346 130.778 45.7022 139.302 55.8606C147.826 66.019 151.965 79.1474 150.81 92.3578C149.654 105.568 143.298 117.778 133.139 126.302L101 88L68.8606 49.6978Z" fill="black" fill-opacity="0.05"/>
</g>
<path id="Star 1" d="M97.4133 59.2679C98.8806 56.295 103.12 56.295 104.587 59.2679L110.65 71.5519C111.232 72.7325 112.359 73.5508 113.661 73.7401L127.218 75.7099C130.499 76.1867 131.809 80.2185 129.434 82.5327L119.625 92.0944C118.682 93.0134 118.252 94.3374 118.475 95.635L120.79 109.136C121.351 112.404 117.921 114.896 114.987 113.353L102.862 106.979C101.696 106.366 100.304 106.366 99.1389 106.979L87.0139 113.353C84.0793 114.896 80.6496 112.404 81.2101 109.136L83.5257 95.635C83.7483 94.3374 83.3181 93.0134 82.3754 92.0944L72.566 82.5327C70.1919 80.2185 71.502 76.1867 74.7829 75.7099L88.339 73.7401C89.6419 73.5508 90.7681 72.7325 91.3508 71.5519L97.4133 59.2679Z" fill="white"/>
</g>
<g id="Group 64">
<path id="Vector" d="M143.391 18.9997C143.199 19.0182 143.011 18.9795 142.852 18.8887C142.692 18.798 142.57 18.6598 142.502 18.4931C142.435 18.3218 142.424 18.1313 142.472 17.9455L142.819 16.7364C142.905 16.4322 142.917 16.1185 142.854 15.82C142.791 15.5216 142.656 15.2466 142.458 15.017L141.652 14.0994C141.537 13.9578 141.474 13.7816 141.471 13.5955C141.469 13.4094 141.528 13.2229 141.639 13.0622C141.751 12.9015 141.91 12.7747 142.093 12.6997C142.277 12.6247 142.476 12.6053 142.662 12.6442L143.9 12.8867C144.211 12.946 144.537 12.9336 144.854 12.8504C145.17 12.7672 145.468 12.6155 145.723 12.4074L146.742 11.5637C146.897 11.442 147.083 11.3669 147.276 11.3489C147.469 11.3308 147.659 11.3707 147.818 11.4631C147.978 11.5554 148.099 11.6955 148.166 11.8639C148.233 12.0323 148.242 12.2207 148.192 12.4028L147.838 13.6362C147.758 13.9335 147.747 14.2394 147.807 14.5309C147.868 14.8223 147.997 15.0917 148.187 15.3186L148.993 16.2335C149.108 16.3734 149.172 16.5477 149.177 16.7321C149.181 16.9166 149.124 17.1021 149.016 17.2629C148.908 17.4237 148.752 17.5518 148.571 17.6294C148.391 17.707 148.193 17.7302 148.007 17.6959L146.772 17.4516C146.459 17.3923 146.131 17.4055 145.813 17.4901C145.496 17.5747 145.197 17.7283 144.943 17.9387L143.922 18.7846C143.768 18.9063 143.582 18.9811 143.391 18.9997Z" fill="#75BE75"/>
<path id="Vector_2" d="M61.229 13.9997C61.0374 14.0183 60.849 13.9795 60.6899 13.8888C60.5308 13.7981 60.4088 13.6598 60.3406 13.4932C60.2733 13.3219 60.2623 13.1314 60.3103 12.9456L60.6578 11.7365C60.7432 11.4323 60.755 11.1185 60.6923 10.8201C60.6295 10.5216 60.494 10.2467 60.2964 10.017L59.4905 9.09944C59.3752 8.95788 59.312 8.78165 59.3097 8.59558C59.3075 8.4095 59.3663 8.22297 59.4778 8.06227C59.5893 7.90156 59.748 7.77478 59.9315 7.69978C60.115 7.62479 60.314 7.60537 60.5005 7.64425L61.7379 7.88679C62.0489 7.94608 62.3757 7.93364 62.6921 7.85043C63.0086 7.76723 63.3061 7.61556 63.561 7.40747L64.5803 6.56378C64.735 6.44208 64.9218 6.36698 65.1147 6.34894C65.3076 6.3309 65.4969 6.37081 65.6564 6.46312C65.8159 6.55542 65.9376 6.69554 66.0046 6.86397C66.0716 7.03241 66.0805 7.22078 66.0301 7.40289L65.6767 8.63627C65.5959 8.93355 65.5853 9.23947 65.6456 9.53092C65.706 9.82237 65.8358 10.0917 66.0251 10.3186L66.8318 11.2335C66.9468 11.3735 67.0108 11.5477 67.0149 11.7322C67.0189 11.9167 66.9629 12.1022 66.8544 12.263C66.746 12.4237 66.5906 12.5518 66.4097 12.6294C66.2289 12.707 66.0317 12.7303 65.8454 12.696L64.6102 12.4517C64.2977 12.3924 63.9694 12.4055 63.6518 12.4901C63.3341 12.5747 63.0359 12.7284 62.781 12.9387L61.7602 13.7847C61.6062 13.9063 61.4203 13.9812 61.229 13.9997Z" fill="#75BE75"/>
<path id="Vector_3" opacity="0.5" d="M168.229 14.6449C168.037 14.6634 167.849 14.6247 167.689 14.5339C167.53 14.4432 167.408 14.305 167.34 14.1383C167.273 13.967 167.262 13.7765 167.31 13.5907L167.657 12.3816C167.743 12.0774 167.755 11.7637 167.692 11.4652C167.629 11.1668 167.494 10.8918 167.296 10.6622L166.49 9.74458C166.375 9.60302 166.312 9.42679 166.309 9.24072C166.307 9.05465 166.366 8.86811 166.477 8.70741C166.589 8.5467 166.748 8.41992 166.931 8.34493C167.115 8.26993 167.314 8.25051 167.5 8.28939L168.737 8.53193C169.048 8.59123 169.375 8.57878 169.692 8.49558C170.008 8.41237 170.306 8.2607 170.56 8.05261L171.58 7.20892C171.735 7.08722 171.921 7.01212 172.114 6.99408C172.307 6.97604 172.496 7.01595 172.656 7.10826C172.815 7.20057 172.937 7.34068 173.004 7.50911C173.071 7.67755 173.08 7.86592 173.03 8.04803L172.676 9.28141C172.595 9.57869 172.585 9.88461 172.645 10.1761C172.706 10.4675 172.835 10.7369 173.025 10.9638L173.831 11.8787C173.946 12.0186 174.01 12.1929 174.014 12.3774C174.018 12.5618 173.962 12.7473 173.854 12.9081C173.745 13.0689 173.59 13.197 173.409 13.2746C173.228 13.3522 173.031 13.3754 172.845 13.3411L171.61 13.0968C171.297 13.0375 170.969 13.0507 170.651 13.1353C170.334 13.2199 170.035 13.3735 169.78 13.5839L168.76 14.4298C168.606 14.5515 168.42 14.6263 168.229 14.6449Z" fill="#00C752"/>
<path id="Vector_4" opacity="0.5" d="M86.0669 9.64483C85.8753 9.66337 85.6869 9.6246 85.5278 9.53387C85.3687 9.44314 85.2467 9.30492 85.1785 9.13826C85.1111 8.96695 85.1002 8.77644 85.1482 8.59063L85.4957 7.38154C85.5811 7.07737 85.5929 6.76362 85.5302 6.46517C85.4674 6.16672 85.3319 5.89176 85.1343 5.6621L84.3284 4.74452C84.2131 4.60296 84.1499 4.42673 84.1476 4.24066C84.1454 4.05458 84.2041 3.86805 84.3157 3.70735C84.4272 3.54664 84.5859 3.41986 84.7694 3.34486C84.9529 3.26987 85.1519 3.25045 85.3384 3.28933L86.5758 3.53187C86.8868 3.59116 87.2135 3.57872 87.53 3.49551C87.8465 3.41231 88.1439 3.26064 88.3989 3.05255L89.4182 2.20886C89.5729 2.08716 89.7597 2.01206 89.9526 1.99402C90.1455 1.97598 90.3348 2.01589 90.4943 2.1082C90.6538 2.2005 90.7755 2.34062 90.8425 2.50905C90.9095 2.67749 90.9184 2.86586 90.868 3.04797L90.5146 4.28135C90.4338 4.57863 90.4232 4.88455 90.4835 5.176C90.5439 5.46745 90.6736 5.7368 90.863 5.9637L91.6696 6.87863C91.7847 7.01853 91.8487 7.19282 91.8528 7.37729C91.8568 7.56176 91.8008 7.74727 91.6923 7.90805C91.5839 8.06883 91.4284 8.19691 91.2476 8.27451C91.0668 8.35211 90.8696 8.37538 90.6833 8.34108L89.4481 8.09673C89.1356 8.03745 88.8073 8.05063 88.4897 8.13522C88.172 8.2198 87.8737 8.37345 87.6189 8.58382L86.5981 9.42974C86.4441 9.55141 86.2582 9.62627 86.0669 9.64483Z" fill="#00C752"/>
<path id="Vector_5" opacity="0.5" d="M161.229 40.6448C161.037 40.6634 160.849 40.6246 160.69 40.5339C160.531 40.4431 160.409 40.3049 160.341 40.1383C160.273 39.967 160.262 39.7764 160.31 39.5906L160.658 38.3815C160.743 38.0774 160.755 37.7636 160.692 37.4652C160.63 37.1667 160.494 36.8918 160.296 36.6621L159.49 35.7445C159.375 35.603 159.312 35.4267 159.31 35.2407C159.307 35.0546 159.366 34.8681 159.478 34.7073C159.589 34.5466 159.748 34.4199 159.932 34.3449C160.115 34.2699 160.314 34.2504 160.501 34.2893L161.738 34.5319C162.049 34.5912 162.376 34.5787 162.692 34.4955C163.009 34.4123 163.306 34.2606 163.561 34.0526L164.58 33.2089C164.735 33.0872 164.922 33.0121 165.115 32.994C165.308 32.976 165.497 33.0159 165.656 33.1082C165.816 33.2005 165.938 33.3406 166.005 33.5091C166.072 33.6775 166.08 33.8659 166.03 34.048L165.677 35.2813C165.596 35.5786 165.585 35.8845 165.646 36.176C165.706 36.4674 165.836 36.7368 166.025 36.9637L166.832 37.8786C166.947 38.0185 167.011 38.1928 167.015 38.3773C167.019 38.5618 166.963 38.7473 166.854 38.908C166.746 39.0688 166.591 39.1969 166.41 39.2745C166.229 39.3521 166.032 39.3754 165.845 39.3411L164.61 39.0967C164.298 39.0374 163.969 39.0506 163.652 39.1352C163.334 39.2198 163.036 39.3734 162.781 39.5838L161.76 40.4297C161.606 40.5514 161.42 40.6263 161.229 40.6448Z" fill="#00C752"/>
</g>
<path id="Vector_6" opacity="0.5" d="M31.5554 15.5345C31.7371 15.5983 31.9292 15.6057 32.1054 15.5556C32.2816 15.5055 32.4331 15.4005 32.5391 15.2549C32.6455 15.1047 32.7016 14.9223 32.6994 14.7304L32.6509 13.4733C32.6407 13.1575 32.7042 12.8501 32.8364 12.5752C32.9686 12.3004 33.166 12.0658 33.4127 11.89L34.4146 11.1916C34.5603 11.0817 34.6638 10.9257 34.7104 10.7455C34.7571 10.5654 34.7446 10.3702 34.6747 10.1875C34.6048 10.0048 34.481 9.84377 34.3207 9.72711C34.1605 9.61045 33.9719 9.54404 33.7815 9.53723L32.522 9.47706C32.2058 9.46032 31.8915 9.37016 31.6041 9.21375C31.3167 9.05734 31.0641 8.83898 30.8663 8.57601L30.0781 7.51319C29.9569 7.35804 29.7934 7.24048 29.6105 7.17687C29.4275 7.11326 29.2341 7.10677 29.0572 7.15829C28.8802 7.20982 28.7286 7.31679 28.6233 7.46434C28.518 7.61189 28.4643 7.79268 28.4698 7.98155L28.5182 9.26365C28.5256 9.57162 28.4628 9.87122 28.3346 10.1398C28.2063 10.4084 28.016 10.6389 27.7779 10.814L26.776 11.5097C26.6308 11.618 26.527 11.772 26.479 11.9501C26.431 12.1283 26.4411 12.3218 26.508 12.5039C26.5749 12.6859 26.6952 12.8474 26.8522 12.966C27.0093 13.0845 27.1953 13.1543 27.3843 13.1655L28.6421 13.2234C28.9598 13.2405 29.2753 13.3317 29.5636 13.4897C29.8518 13.6478 30.1047 13.8682 30.302 14.1334L31.0911 15.1988C31.2115 15.3537 31.3741 15.4708 31.5554 15.5345Z" fill="#B9D15F"/>
</g>
<defs>
<linearGradient id="paint0_linear_383_197" x1="63.8" y1="100.4" x2="138.2" y2="100.4" gradientUnits="userSpaceOnUse">
<stop stop-color="#0F425F"/>
<stop offset="1" stop-color="#0F93DB"/>
</linearGradient>
<linearGradient id="paint1_linear_383_197" x1="39" y1="26" x2="163" y2="26" gradientUnits="userSpaceOnUse">
<stop stop-color="#0F425F"/>
<stop offset="1" stop-color="#0F93DB"/>
</linearGradient>
<linearGradient id="paint2_linear_383_197" x1="51" y1="77.1304" x2="151" y2="77.1304" gradientUnits="userSpaceOnUse">
<stop stop-color="#E5E94C"/>
<stop offset="1" stop-color="#28FAE0"/>
</linearGradient>
<clipPath id="clip0_383_197">
<rect width="200" height="200" fill="white" transform="translate(0.5 0.5)"/>
</clipPath>
</defs>
</svg>
