<svg width="19" height="25" viewBox="0 0 19 25" fill="none" xmlns="http://www.w3.org/2000/svg">
<g id="Icon/myEvents2" clip-path="url(#clip0_1_918)">
<path id="Union" fill-rule="evenodd" clip-rule="evenodd" d="M0.949951 9.66359C0.949951 5.08177 4.77495 1.37268 9.49995 1.37268C14.2249 1.37268 18.0499 5.08177 18.0499 9.66359C18.0499 14.2454 14.2249 17.9545 9.49995 17.9545C4.77495 17.9545 0.949951 14.2454 0.949951 9.66359ZM1.84995 9.66359C1.84995 13.7436 5.29245 17.0818 9.49995 17.0818C13.7075 17.0818 17.15 13.7436 17.15 9.66359C17.15 5.58359 13.7075 2.24541 9.49995 2.24541C5.29245 2.24541 1.84995 5.58359 1.84995 9.66359ZM14.3825 7.24177C14.7875 7.24177 15.125 7.48177 15.2375 7.85268C15.35 8.22359 15.215 8.61632 14.945 8.85632L12.47 10.6018L13.415 13.4381C13.5275 13.809 13.3925 14.2018 13.0775 14.42C12.8975 14.529 12.7175 14.5945 12.5375 14.5945C12.335 14.5945 12.155 14.529 11.9975 14.42L9.52247 12.6745L7.04747 14.42C6.73247 14.6381 6.30497 14.6381 5.98997 14.42C5.65247 14.18 5.53997 13.809 5.65247 13.4381L6.59747 10.6018L4.12247 8.85632C3.78497 8.61632 3.67247 8.24541 3.78497 7.8745C3.89747 7.50359 4.23497 7.26359 4.63997 7.26359H7.69997L8.64497 4.42723C8.75747 4.05632 9.09497 3.81632 9.49997 3.81632C9.90497 3.81632 10.2425 4.05632 10.355 4.42723L11.3 7.26359L14.3825 7.24177ZM3.15491 22.2309L5.13491 21.86L6.25991 23.4963L8.23991 18.9145C7.09241 18.7618 5.98991 18.4127 5.02241 17.9109L3.15491 22.2309ZM11.7275 22.4709L10.445 18.9581C11.615 18.8272 12.7175 18.5218 13.7075 18.0636L14.9 21.38L12.9425 20.9L11.7275 22.4709Z" fill="#336CA0"/>
</g>
<defs>
<clipPath id="clip0_1_918">
<rect width="18" height="24" fill="white" transform="translate(0.5 0.5)"/>
</clipPath>
</defs>
</svg>
