<svg width="87" height="25" viewBox="0 0 87 25" fill="none" xmlns="http://www.w3.org/2000/svg">
<path id="Vector" d="M1.22182 11.3148C1.22182 8.87037 1.67399 7.31481 2.57834 6.7963V6.20371H0.166748V0.722224H13.1291C15.2392 0.722224 16.7465 1.46297 17.7262 2.94445C18.7059 4.42593 19.2334 6.42593 19.2334 8.87037V24.5H1.22182V11.3148ZM13.6566 9.75926C13.6566 8.5 13.5059 7.61111 13.1291 7.01852C12.7523 6.42593 12.2247 6.12963 11.3957 6.12963H7.77834C7.10008 6.12963 6.79863 6.64815 6.79863 7.61111V18.9444H13.5812V9.75926H13.6566ZM23.9059 14.5741V0.648152H29.5581V14.5741H23.9059ZM45.0073 24.4259H39.3552V13.9815C39.3552 13.463 39.3551 12.8704 39.4305 12.2778C39.5059 11.6852 39.5812 11.0185 39.732 10.3519C39.8827 9.68519 40.1088 9.01852 40.4102 8.27778C40.7117 7.53704 41.0885 6.7963 41.616 6.05556H32.7233V0.5H48.0972V5.24074C46.8914 5.98148 46.0624 6.72222 45.6102 7.53704C45.158 8.35185 45.0073 9.31481 45.0073 10.5V24.4259ZM52.5436 14.5741V0.648152H58.1957V14.5741H52.5436ZM73.7204 24.4259H68.0682V13.9815C68.0682 13.463 68.0682 12.8704 68.1436 12.2778C68.2189 11.6852 68.2943 11.0185 68.445 10.3519C68.5957 9.68519 68.8218 9.01852 69.1233 8.27778C69.4247 7.53704 69.8015 6.7963 70.3291 6.05556H61.4363V0.5H76.8102V5.24074C75.6044 5.98148 74.7754 6.72222 74.3233 7.53704C73.8711 8.35185 73.7204 9.31481 73.7204 10.5V24.4259ZM81.1812 14.5741V0.648152H86.8334V14.5741H81.1812Z" fill="#0F425F"/>
</svg>
